<?xml version="1.0" encoding="UTF-8"?>
<svg xmlns="http://www.w3.org/2000/svg" xmlns:xlink="http://www.w3.org/1999/xlink" width="1800" height="2000" viewBox="0 0 1800 2000">
<defs>
<g>
<g id="glyph-0-0">
<path d="M 1.78125 0 L 1.78125 -2.25 L 5.328125 -2.25 L 5.328125 -25.453125 L 1.78125 -25.453125 L 1.78125 -27.703125 L 17.546875 -27.703125 C 20.628906 -27.703125 23.078125 -26.96875 24.890625 -25.5 C 26.710938 -24.039062 27.625 -22.078125 27.625 -19.609375 C 27.625 -17.140625 26.710938 -15.164062 24.890625 -13.6875 C 23.066406 -12.207031 20.617188 -11.46875 17.546875 -11.46875 L 12.46875 -11.46875 L 12.46875 -2.25 L 16.9375 -2.25 L 16.9375 0 Z M 12.46875 -13.71875 L 14.546875 -13.71875 C 16.148438 -13.71875 17.429688 -14.25 18.390625 -15.3125 C 19.347656 -16.382812 19.828125 -17.816406 19.828125 -19.609375 C 19.828125 -21.390625 19.351562 -22.804688 18.40625 -23.859375 C 17.457031 -24.921875 16.171875 -25.453125 14.546875 -25.453125 L 12.46875 -25.453125 Z M 12.46875 -13.71875 "/>
</g>
<g id="glyph-0-1">
<path d="M 20.9375 -12.109375 L 20.9375 -2.25 L 23.75 -2.25 L 23.75 0 L 14.359375 0 L 14.359375 -2.5 C 13.492188 -1.46875 12.53125 -0.703125 11.46875 -0.203125 C 10.40625 0.285156 9.191406 0.53125 7.828125 0.53125 C 5.816406 0.53125 4.269531 -0.00390625 3.1875 -1.078125 C 2.101562 -2.160156 1.5625 -3.710938 1.5625 -5.734375 C 1.5625 -7.953125 2.335938 -9.609375 3.890625 -10.703125 C 5.441406 -11.804688 7.78125 -12.359375 10.90625 -12.359375 L 14.359375 -12.359375 L 14.359375 -13.53125 C 14.359375 -15.125 13.976562 -16.300781 13.21875 -17.0625 C 12.46875 -17.820312 11.300781 -18.203125 9.71875 -18.203125 C 8.40625 -18.203125 7.394531 -17.929688 6.6875 -17.390625 C 5.976562 -16.859375 5.472656 -15.976562 5.171875 -14.75 L 3.078125 -14.75 L 3.078125 -19 C 4.253906 -19.414062 5.472656 -19.726562 6.734375 -19.9375 C 7.992188 -20.15625 9.320312 -20.265625 10.71875 -20.265625 C 14.25 -20.265625 16.832031 -19.609375 18.46875 -18.296875 C 20.113281 -16.984375 20.9375 -14.921875 20.9375 -12.109375 Z M 14.359375 -6.203125 L 14.359375 -10.15625 L 11.890625 -10.15625 C 10.671875 -10.15625 9.734375 -9.816406 9.078125 -9.140625 C 8.421875 -8.472656 8.09375 -7.515625 8.09375 -6.265625 C 8.09375 -5.015625 8.328125 -4.082031 8.796875 -3.46875 C 9.273438 -2.851562 10.003906 -2.546875 10.984375 -2.546875 C 11.992188 -2.546875 12.804688 -2.878906 13.421875 -3.546875 C 14.046875 -4.210938 14.359375 -5.097656 14.359375 -6.203125 Z M 14.359375 -6.203125 "/>
</g>
<g id="glyph-0-2">
<path d="M 3.765625 -17.484375 L 0.90625 -17.484375 L 0.90625 -19.71875 L 3.765625 -19.71875 L 3.765625 -25.84375 L 10.328125 -25.84375 L 10.328125 -19.71875 L 15.8125 -19.71875 L 15.8125 -17.484375 L 10.328125 -17.484375 L 10.328125 -5.40625 C 10.328125 -3.6875 10.460938 -2.613281 10.734375 -2.1875 C 11.015625 -1.769531 11.515625 -1.5625 12.234375 -1.5625 C 13.023438 -1.5625 13.609375 -1.828125 13.984375 -2.359375 C 14.367188 -2.890625 14.578125 -3.710938 14.609375 -4.828125 L 17.375 -4.828125 C 17.257812 -2.847656 16.710938 -1.457031 15.734375 -0.65625 C 14.765625 0.132812 13.09375 0.53125 10.71875 0.53125 C 8.007812 0.53125 6.171875 0.109375 5.203125 -0.734375 C 4.242188 -1.578125 3.765625 -3.132812 3.765625 -5.40625 Z M 3.765625 -17.484375 "/>
</g>
<g id="glyph-0-3">
<path d="M 3.484375 -25.3125 C 3.484375 -26.3125 3.828125 -27.15625 4.515625 -27.84375 C 5.210938 -28.53125 6.0625 -28.875 7.0625 -28.875 C 8.039062 -28.875 8.875 -28.53125 9.5625 -27.84375 C 10.25 -27.15625 10.59375 -26.3125 10.59375 -25.3125 C 10.59375 -24.332031 10.25 -23.5 9.5625 -22.8125 C 8.875 -22.125 8.039062 -21.78125 7.0625 -21.78125 C 6.0625 -21.78125 5.210938 -22.117188 4.515625 -22.796875 C 3.828125 -23.484375 3.484375 -24.320312 3.484375 -25.3125 Z M 10.671875 -2.25 L 13.484375 -2.25 L 13.484375 0 L 1.296875 0 L 1.296875 -2.25 L 4.09375 -2.25 L 4.09375 -17.484375 L 1.296875 -17.484375 L 1.296875 -19.71875 L 10.671875 -19.71875 Z M 10.671875 -2.25 "/>
</g>
<g id="glyph-0-4">
<path d="M 15.234375 -11.140625 C 15.234375 -13.734375 14.988281 -15.550781 14.5 -16.59375 C 14.019531 -17.644531 13.203125 -18.171875 12.046875 -18.171875 C 10.921875 -18.171875 10.113281 -17.65625 9.625 -16.625 C 9.132812 -15.59375 8.890625 -13.875 8.890625 -11.46875 L 8.890625 -11.140625 Z M 22.453125 -8.921875 L 8.890625 -8.921875 L 8.890625 -8.78125 C 8.890625 -6.226562 9.269531 -4.382812 10.03125 -3.25 C 10.800781 -2.125 12.039062 -1.5625 13.75 -1.5625 C 15.175781 -1.5625 16.328125 -1.9375 17.203125 -2.6875 C 18.078125 -3.445312 18.640625 -4.539062 18.890625 -5.96875 L 21.96875 -5.96875 C 21.4375 -3.726562 20.378906 -2.082031 18.796875 -1.03125 C 17.210938 0.0078125 15 0.53125 12.15625 0.53125 C 8.738281 0.53125 6.117188 -0.363281 4.296875 -2.15625 C 2.472656 -3.957031 1.5625 -6.53125 1.5625 -9.875 C 1.5625 -13.132812 2.492188 -15.679688 4.359375 -17.515625 C 6.222656 -19.347656 8.820312 -20.265625 12.15625 -20.265625 C 15.414062 -20.265625 17.914062 -19.300781 19.65625 -17.375 C 21.40625 -15.445312 22.335938 -12.628906 22.453125 -8.921875 Z M 22.453125 -8.921875 "/>
</g>
<g id="glyph-0-5">
<path d="M 1.296875 0 L 1.296875 -2.25 L 4.09375 -2.25 L 4.09375 -17.484375 L 1.296875 -17.484375 L 1.296875 -19.71875 L 10.671875 -19.71875 L 10.671875 -16.9375 C 11.460938 -18.113281 12.363281 -18.960938 13.375 -19.484375 C 14.394531 -20.003906 15.675781 -20.265625 17.21875 -20.265625 C 19.4375 -20.265625 21.109375 -19.609375 22.234375 -18.296875 C 23.367188 -16.992188 23.9375 -15.078125 23.9375 -12.546875 L 23.9375 -2.25 L 26.75 -2.25 L 26.75 0 L 14.96875 0 L 14.96875 -2.25 L 17.375 -2.25 L 17.375 -12.734375 C 17.375 -14.398438 17.160156 -15.554688 16.734375 -16.203125 C 16.304688 -16.859375 15.566406 -17.1875 14.515625 -17.1875 C 13.191406 -17.1875 12.21875 -16.695312 11.59375 -15.71875 C 10.976562 -14.75 10.671875 -13.207031 10.671875 -11.09375 L 10.671875 -2.25 L 13.078125 -2.25 L 13.078125 0 Z M 1.296875 0 "/>
</g>
<g id="glyph-0-6">
<path d="M 2.0625 -12.6875 L 13.71875 -12.6875 L 13.71875 -7.6875 L 2.0625 -7.6875 Z M 2.0625 -12.6875 "/>
</g>
<g id="glyph-0-7">
<path d="M 20.171875 -13.53125 C 21.273438 -13.363281 22.203125 -12.992188 22.953125 -12.421875 C 23.703125 -11.859375 24.359375 -11.039062 24.921875 -9.96875 L 28.96875 -2.25 L 31.796875 -2.25 L 31.796875 0 L 22.6875 0 L 18.28125 -8.375 C 17.425781 -10.101562 16.695312 -11.203125 16.09375 -11.671875 C 15.5 -12.148438 14.664062 -12.390625 13.59375 -12.390625 L 12.46875 -12.390625 L 12.46875 -2.25 L 16.03125 -2.25 L 16.03125 0 L 1.78125 0 L 1.78125 -2.25 L 5.328125 -2.25 L 5.328125 -25.453125 L 1.78125 -25.453125 L 1.78125 -27.703125 L 17.59375 -27.703125 C 20.8125 -27.703125 23.296875 -27.054688 25.046875 -25.765625 C 26.796875 -24.472656 27.671875 -22.640625 27.671875 -20.265625 C 27.671875 -18.335938 27.046875 -16.8125 25.796875 -15.6875 C 24.554688 -14.570312 22.679688 -13.851562 20.171875 -13.53125 Z M 12.46875 -14.625 L 14.90625 -14.625 C 16.632812 -14.625 17.960938 -15.09375 18.890625 -16.03125 C 19.828125 -16.96875 20.296875 -18.3125 20.296875 -20.0625 C 20.296875 -21.800781 19.828125 -23.132812 18.890625 -24.0625 C 17.960938 -24.988281 16.632812 -25.453125 14.90625 -25.453125 L 12.46875 -25.453125 Z M 12.46875 -14.625 "/>
</g>
<g id="glyph-0-8">
<path d="M 12.6875 -1.5625 C 14.070312 -1.5625 15.046875 -2.15625 15.609375 -3.34375 C 16.171875 -4.53125 16.453125 -6.707031 16.453125 -9.875 C 16.453125 -13.039062 16.171875 -15.210938 15.609375 -16.390625 C 15.054688 -17.578125 14.082031 -18.171875 12.6875 -18.171875 C 11.289062 -18.171875 10.304688 -17.570312 9.734375 -16.375 C 9.171875 -15.175781 8.890625 -13.007812 8.890625 -9.875 C 8.890625 -6.726562 9.171875 -4.554688 9.734375 -3.359375 C 10.304688 -2.160156 11.289062 -1.5625 12.6875 -1.5625 Z M 12.6875 0.53125 C 9.21875 0.53125 6.492188 -0.390625 4.515625 -2.234375 C 2.546875 -4.085938 1.5625 -6.632812 1.5625 -9.875 C 1.5625 -13.125 2.546875 -15.664062 4.515625 -17.5 C 6.492188 -19.34375 9.21875 -20.265625 12.6875 -20.265625 C 16.175781 -20.265625 18.90625 -19.34375 20.875 -17.5 C 22.84375 -15.664062 23.828125 -13.125 23.828125 -9.875 C 23.828125 -6.632812 22.835938 -4.085938 20.859375 -2.234375 C 18.890625 -0.390625 16.164062 0.53125 12.6875 0.53125 Z M 12.6875 0.53125 "/>
</g>
<g id="glyph-0-9">
<path d="M 3.6875 -2.25 L 3.6875 -26.640625 L 0.875 -26.640625 L 0.875 -28.875 L 10.265625 -28.875 L 10.265625 -17.21875 C 10.816406 -18.25 11.5625 -19.015625 12.5 -19.515625 C 13.445312 -20.015625 14.613281 -20.265625 16 -20.265625 C 18.800781 -20.265625 21.007812 -19.335938 22.625 -17.484375 C 24.238281 -15.640625 25.046875 -13.101562 25.046875 -9.875 C 25.046875 -6.644531 24.238281 -4.101562 22.625 -2.25 C 21.007812 -0.394531 18.800781 0.53125 16 0.53125 C 14.613281 0.53125 13.445312 0.28125 12.5 -0.21875 C 11.5625 -0.71875 10.816406 -1.476562 10.265625 -2.5 L 10.265625 0 L 0.875 0 L 0.875 -2.25 Z M 10.265625 -8.890625 C 10.265625 -6.585938 10.554688 -4.921875 11.140625 -3.890625 C 11.734375 -2.867188 12.679688 -2.359375 13.984375 -2.359375 C 15.335938 -2.359375 16.289062 -2.898438 16.84375 -3.984375 C 17.394531 -5.078125 17.671875 -7.039062 17.671875 -9.875 C 17.671875 -12.707031 17.394531 -14.664062 16.84375 -15.75 C 16.289062 -16.832031 15.335938 -17.375 13.984375 -17.375 C 12.679688 -17.375 11.734375 -16.859375 11.140625 -15.828125 C 10.554688 -14.796875 10.265625 -13.132812 10.265625 -10.84375 Z M 10.265625 -8.890625 "/>
</g>
<g id="glyph-0-10">
</g>
<g id="glyph-0-11">
<path d="M 1.78125 0 L 1.78125 -2.25 L 5.328125 -2.25 L 5.328125 -25.453125 L 1.78125 -25.453125 L 1.78125 -27.703125 L 16.03125 -27.703125 L 16.03125 -25.453125 L 12.46875 -25.453125 L 12.46875 -2.25 L 16.03125 -2.25 L 16.03125 0 Z M 1.78125 0 "/>
</g>
<g id="glyph-0-12">
<path d="M 20.40625 -19.953125 L 20.40625 -14.0625 L 18.3125 -14.0625 C 18.238281 -15.113281 17.953125 -15.894531 17.453125 -16.40625 C 16.960938 -16.925781 16.25 -17.1875 15.3125 -17.1875 C 13.875 -17.1875 12.738281 -16.550781 11.90625 -15.28125 C 11.082031 -14.019531 10.671875 -12.269531 10.671875 -10.03125 L 10.671875 -2.25 L 14.25 -2.25 L 14.25 0 L 1.296875 0 L 1.296875 -2.25 L 4.09375 -2.25 L 4.09375 -17.484375 L 1.09375 -17.484375 L 1.09375 -19.71875 L 10.671875 -19.71875 L 10.671875 -16.21875 C 11.316406 -17.59375 12.164062 -18.609375 13.21875 -19.265625 C 14.28125 -19.929688 15.578125 -20.265625 17.109375 -20.265625 C 17.492188 -20.265625 17.957031 -20.234375 18.5 -20.171875 C 19.050781 -20.117188 19.6875 -20.046875 20.40625 -19.953125 Z M 20.40625 -19.953125 "/>
</g>
<g id="glyph-0-13">
<path d="M 21.4375 -6.15625 C 20.957031 -3.90625 19.988281 -2.226562 18.53125 -1.125 C 17.082031 -0.0195312 15.113281 0.53125 12.625 0.53125 C 9.101562 0.53125 6.378906 -0.375 4.453125 -2.1875 C 2.523438 -4.007812 1.5625 -6.570312 1.5625 -9.875 C 1.5625 -13.132812 2.515625 -15.679688 4.421875 -17.515625 C 6.328125 -19.347656 8.972656 -20.265625 12.359375 -20.265625 C 13.734375 -20.265625 15.117188 -20.132812 16.515625 -19.875 C 17.910156 -19.613281 19.332031 -19.222656 20.78125 -18.703125 L 20.78125 -13.234375 L 18.703125 -13.234375 C 18.503906 -14.898438 18.015625 -16.140625 17.234375 -16.953125 C 16.453125 -17.765625 15.359375 -18.171875 13.953125 -18.171875 C 12.117188 -18.171875 10.816406 -17.550781 10.046875 -16.3125 C 9.273438 -15.070312 8.890625 -12.925781 8.890625 -9.875 C 8.890625 -6.894531 9.265625 -4.765625 10.015625 -3.484375 C 10.773438 -2.203125 12.007812 -1.5625 13.71875 -1.5625 C 15.039062 -1.5625 16.097656 -1.957031 16.890625 -2.75 C 17.691406 -3.539062 18.175781 -4.675781 18.34375 -6.15625 Z M 21.4375 -6.15625 "/>
</g>
<g id="glyph-0-14">
<path d="M 3.484375 -15.078125 C 3.484375 -16.054688 3.828125 -16.890625 4.515625 -17.578125 C 5.203125 -18.273438 6.03125 -18.625 7 -18.625 C 7.957031 -18.625 8.78125 -18.273438 9.46875 -17.578125 C 10.164062 -16.878906 10.515625 -16.046875 10.515625 -15.078125 C 10.515625 -14.117188 10.171875 -13.296875 9.484375 -12.609375 C 8.804688 -11.929688 7.976562 -11.59375 7 -11.59375 C 6.019531 -11.59375 5.1875 -11.929688 4.5 -12.609375 C 3.820312 -13.296875 3.484375 -14.117188 3.484375 -15.078125 Z M 3.484375 -3 C 3.484375 -3.96875 3.828125 -4.796875 4.515625 -5.484375 C 5.203125 -6.179688 6.03125 -6.53125 7 -6.53125 C 7.957031 -6.53125 8.78125 -6.179688 9.46875 -5.484375 C 10.164062 -4.796875 10.515625 -3.96875 10.515625 -3 C 10.515625 -2.03125 10.164062 -1.195312 9.46875 -0.5 C 8.78125 0.1875 7.957031 0.53125 7 0.53125 C 6.03125 0.53125 5.203125 0.1875 4.515625 -0.5 C 3.828125 -1.195312 3.484375 -2.03125 3.484375 -3 Z M 3.484375 -3 "/>
</g>
<g id="glyph-0-15">
<path d="M 1.671875 0 L 1.671875 -2.25 L 5.21875 -2.25 L 5.21875 -25.453125 L 1.671875 -25.453125 L 1.671875 -27.703125 L 10.328125 -27.703125 L 27.046875 -8.09375 L 27.046875 -25.453125 L 23.53125 -25.453125 L 23.53125 -27.703125 L 33.21875 -27.703125 L 33.21875 -25.453125 L 29.671875 -25.453125 L 29.671875 0 L 24.8125 0 L 7.828125 -20.015625 L 7.828125 -2.25 L 11.359375 -2.25 L 11.359375 0 Z M 1.671875 0 "/>
</g>
<g id="glyph-0-16">
<path d="M 16.3125 -8.890625 L 16.3125 -10.84375 C 16.3125 -13.132812 16.015625 -14.796875 15.421875 -15.828125 C 14.828125 -16.859375 13.878906 -17.375 12.578125 -17.375 C 11.222656 -17.375 10.269531 -16.832031 9.71875 -15.75 C 9.164062 -14.664062 8.890625 -12.707031 8.890625 -9.875 C 8.890625 -7.039062 9.164062 -5.078125 9.71875 -3.984375 C 10.28125 -2.898438 11.234375 -2.359375 12.578125 -2.359375 C 13.878906 -2.359375 14.828125 -2.867188 15.421875 -3.890625 C 16.015625 -4.921875 16.3125 -6.585938 16.3125 -8.890625 Z M 22.875 -2.25 L 25.6875 -2.25 L 25.6875 0 L 16.3125 0 L 16.3125 -2.5 C 15.75 -1.476562 14.992188 -0.71875 14.046875 -0.21875 C 13.109375 0.28125 11.945312 0.53125 10.5625 0.53125 C 7.757812 0.53125 5.554688 -0.394531 3.953125 -2.25 C 2.359375 -4.101562 1.5625 -6.644531 1.5625 -9.875 C 1.5625 -13.113281 2.359375 -15.65625 3.953125 -17.5 C 5.554688 -19.34375 7.757812 -20.265625 10.5625 -20.265625 C 11.945312 -20.265625 13.109375 -20.015625 14.046875 -19.515625 C 14.992188 -19.015625 15.75 -18.25 16.3125 -17.21875 L 16.3125 -26.640625 L 13.484375 -26.640625 L 13.484375 -28.875 L 22.875 -28.875 Z M 22.875 -2.25 "/>
</g>
<g id="glyph-0-17">
<path d="M 10.671875 -2.25 L 13.484375 -2.25 L 13.484375 0 L 1.296875 0 L 1.296875 -2.25 L 4.09375 -2.25 L 4.09375 -26.640625 L 1.296875 -26.640625 L 1.296875 -28.875 L 10.671875 -28.875 Z M 10.671875 -2.25 "/>
</g>
<g id="glyph-0-18">
<path d="M 23.0625 -16.5 C 23.976562 -17.8125 24.96875 -18.765625 26.03125 -19.359375 C 27.09375 -19.960938 28.335938 -20.265625 29.765625 -20.265625 C 32.023438 -20.265625 33.710938 -19.625 34.828125 -18.34375 C 35.953125 -17.0625 36.515625 -15.128906 36.515625 -12.546875 L 36.515625 -2.25 L 39.34375 -2.25 L 39.34375 0 L 27.59375 0 L 27.59375 -2.25 L 29.953125 -2.25 L 29.953125 -11.5625 C 29.953125 -14.019531 29.757812 -15.570312 29.375 -16.21875 C 29 -16.863281 28.300781 -17.1875 27.28125 -17.1875 C 26.113281 -17.1875 25.207031 -16.734375 24.5625 -15.828125 C 23.925781 -14.929688 23.609375 -13.65625 23.609375 -12 L 23.609375 -2.25 L 25.953125 -2.25 L 25.953125 0 L 14.671875 0 L 14.671875 -2.25 L 17.03125 -2.25 L 17.03125 -11.5625 C 17.03125 -14.019531 16.835938 -15.570312 16.453125 -16.21875 C 16.078125 -16.863281 15.378906 -17.1875 14.359375 -17.1875 C 13.179688 -17.1875 12.269531 -16.734375 11.625 -15.828125 C 10.988281 -14.929688 10.671875 -13.65625 10.671875 -12 L 10.671875 -2.25 L 13.03125 -2.25 L 13.03125 0 L 1.296875 0 L 1.296875 -2.25 L 4.09375 -2.25 L 4.09375 -17.484375 L 1.296875 -17.484375 L 1.296875 -19.71875 L 10.671875 -19.71875 L 10.671875 -16.9375 C 11.429688 -18.09375 12.304688 -18.9375 13.296875 -19.46875 C 14.285156 -20 15.460938 -20.265625 16.828125 -20.265625 C 18.429688 -20.265625 19.734375 -19.957031 20.734375 -19.34375 C 21.742188 -18.726562 22.519531 -17.78125 23.0625 -16.5 Z M 23.0625 -16.5 "/>
</g>
<g id="glyph-0-19">
<path d="M 2.9375 -1.34375 L 2.9375 -7.90625 L 5.28125 -7.90625 C 5.644531 -5.820312 6.492188 -4.265625 7.828125 -3.234375 C 9.160156 -2.210938 11.007812 -1.703125 13.375 -1.703125 C 15.289062 -1.703125 16.75 -2.066406 17.75 -2.796875 C 18.757812 -3.523438 19.265625 -4.597656 19.265625 -6.015625 C 19.265625 -7.128906 18.921875 -7.992188 18.234375 -8.609375 C 17.554688 -9.222656 16.15625 -9.796875 14.03125 -10.328125 L 9.875 -11.359375 C 7.164062 -12.046875 5.257812 -13.003906 4.15625 -14.234375 C 3.050781 -15.472656 2.5 -17.226562 2.5 -19.5 C 2.5 -22.25 3.410156 -24.382812 5.234375 -25.90625 C 7.066406 -27.4375 9.628906 -28.203125 12.921875 -28.203125 C 14.535156 -28.203125 16.21875 -28.066406 17.96875 -27.796875 C 19.71875 -27.523438 21.535156 -27.117188 23.421875 -26.578125 L 23.421875 -20.453125 L 21.0625 -20.453125 C 20.695312 -22.359375 19.910156 -23.75 18.703125 -24.625 C 17.492188 -25.507812 15.769531 -25.953125 13.53125 -25.953125 C 11.695312 -25.953125 10.3125 -25.632812 9.375 -25 C 8.445312 -24.363281 7.984375 -23.414062 7.984375 -22.15625 C 7.984375 -21 8.300781 -20.117188 8.9375 -19.515625 C 9.582031 -18.921875 11.160156 -18.304688 13.671875 -17.671875 L 17.828125 -16.640625 C 20.398438 -15.992188 22.265625 -14.988281 23.421875 -13.625 C 24.578125 -12.269531 25.15625 -10.398438 25.15625 -8.015625 C 25.15625 -5.222656 24.191406 -3.097656 22.265625 -1.640625 C 20.335938 -0.191406 17.5 0.53125 13.75 0.53125 C 11.945312 0.53125 10.15625 0.375 8.375 0.0625 C 6.59375 -0.238281 4.78125 -0.707031 2.9375 -1.34375 Z M 2.9375 -1.34375 "/>
</g>
<g id="glyph-0-20">
<path d="M 11.859375 4.453125 C 11.265625 5.898438 10.546875 6.925781 9.703125 7.53125 C 8.859375 8.132812 7.726562 8.4375 6.3125 8.4375 C 5.707031 8.4375 5.03125 8.367188 4.28125 8.234375 C 3.539062 8.097656 2.734375 7.898438 1.859375 7.640625 L 1.859375 3.53125 L 3.953125 3.546875 C 3.992188 4.492188 4.21875 5.195312 4.625 5.65625 C 5.039062 6.113281 5.664062 6.34375 6.5 6.34375 C 7.300781 6.34375 7.945312 6.125 8.4375 5.6875 C 8.9375 5.25 9.429688 4.414062 9.921875 3.1875 L 10.21875 2.5 L 1.640625 -17.484375 L -0.5 -17.484375 L -0.5 -19.71875 L 10.875 -19.71875 L 10.875 -17.484375 L 8.515625 -17.484375 L 13.53125 -5.8125 L 18.203125 -17.484375 L 15.59375 -17.484375 L 15.59375 -19.71875 L 22.984375 -19.71875 L 22.984375 -17.484375 L 20.59375 -17.484375 Z M 11.859375 4.453125 "/>
</g>
<g id="glyph-0-21">
<path d="M 1.78125 -0.578125 L 1.78125 -6.09375 L 3.875 -6.09375 C 4.050781 -4.613281 4.601562 -3.488281 5.53125 -2.71875 C 6.457031 -1.945312 7.71875 -1.5625 9.3125 -1.5625 C 10.644531 -1.5625 11.664062 -1.789062 12.375 -2.25 C 13.09375 -2.71875 13.453125 -3.382812 13.453125 -4.25 C 13.453125 -5.039062 13.222656 -5.648438 12.765625 -6.078125 C 12.316406 -6.515625 11.445312 -6.894531 10.15625 -7.21875 L 7.4375 -7.90625 C 5.394531 -8.414062 3.914062 -9.140625 3 -10.078125 C 2.09375 -11.023438 1.640625 -12.304688 1.640625 -13.921875 C 1.640625 -16.054688 2.378906 -17.644531 3.859375 -18.6875 C 5.347656 -19.738281 7.632812 -20.265625 10.71875 -20.265625 C 11.882812 -20.265625 13.125 -20.164062 14.4375 -19.96875 C 15.757812 -19.78125 17.21875 -19.484375 18.8125 -19.078125 L 18.8125 -14.109375 L 16.71875 -14.109375 C 16.601562 -15.453125 16.125 -16.460938 15.28125 -17.140625 C 14.4375 -17.828125 13.222656 -18.171875 11.640625 -18.171875 C 10.296875 -18.171875 9.28125 -17.957031 8.59375 -17.53125 C 7.914062 -17.101562 7.578125 -16.476562 7.578125 -15.65625 C 7.578125 -14.988281 7.773438 -14.460938 8.171875 -14.078125 C 8.566406 -13.703125 9.273438 -13.382812 10.296875 -13.125 L 12.984375 -12.4375 C 15.566406 -11.78125 17.351562 -10.96875 18.34375 -10 C 19.332031 -9.03125 19.828125 -7.6875 19.828125 -5.96875 C 19.828125 -3.75 19.03125 -2.109375 17.4375 -1.046875 C 15.851562 0.00390625 13.382812 0.53125 10.03125 0.53125 C 8.8125 0.53125 7.515625 0.4375 6.140625 0.25 C 4.765625 0.0703125 3.3125 -0.203125 1.78125 -0.578125 Z M 1.78125 -0.578125 "/>
</g>
<g id="glyph-1-0">
<path d="M 3.203125 -4.234375 L 7.484375 -4.234375 L 5.34375 -9.78125 Z M -0.09375 0 L -0.09375 -0.828125 L 0.9375 -0.828125 L 5.09375 -11.671875 L 6.40625 -11.671875 L 10.5625 -0.828125 L 11.71875 -0.828125 L 11.71875 0 L 7.46875 0 L 7.46875 -0.828125 L 8.765625 -0.828125 L 7.796875 -3.390625 L 2.890625 -3.390625 L 1.90625 -0.828125 L 3.1875 -0.828125 L 3.1875 0 Z M -0.09375 0 "/>
</g>
<g id="glyph-1-1">
<path d="M 8.40625 -0.828125 L 9.78125 -0.828125 L 9.78125 0 L 6.96875 0 L 6.96875 -1.296875 C 6.6875 -0.773438 6.328125 -0.390625 5.890625 -0.140625 C 5.453125 0.109375 4.914062 0.234375 4.28125 0.234375 C 3.257812 0.234375 2.421875 -0.171875 1.765625 -0.984375 C 1.117188 -1.796875 0.796875 -2.851562 0.796875 -4.15625 C 0.796875 -5.457031 1.117188 -6.507812 1.765625 -7.3125 C 2.410156 -8.125 3.25 -8.53125 4.28125 -8.53125 C 4.914062 -8.53125 5.453125 -8.40625 5.890625 -8.15625 C 6.328125 -7.914062 6.6875 -7.535156 6.96875 -7.015625 L 6.96875 -11.328125 L 5.609375 -11.328125 L 5.609375 -12.15625 L 8.40625 -12.15625 Z M 6.96875 -3.75 L 6.96875 -4.5625 C 6.96875 -5.5625 6.773438 -6.320312 6.390625 -6.84375 C 6.003906 -7.375 5.445312 -7.640625 4.71875 -7.640625 C 3.976562 -7.640625 3.421875 -7.347656 3.046875 -6.765625 C 2.671875 -6.179688 2.484375 -5.3125 2.484375 -4.15625 C 2.484375 -3.007812 2.671875 -2.140625 3.046875 -1.546875 C 3.421875 -0.960938 3.976562 -0.671875 4.71875 -0.671875 C 5.445312 -0.671875 6.003906 -0.929688 6.390625 -1.453125 C 6.773438 -1.984375 6.96875 -2.75 6.96875 -3.75 Z M 6.96875 -3.75 "/>
</g>
<g id="glyph-1-2">
<path d="M 5.671875 -8.3125 L 8.359375 -8.3125 L 8.359375 -0.828125 L 9.71875 -0.828125 L 9.71875 0 L 6.921875 0 L 6.921875 -1.46875 C 6.648438 -0.914062 6.300781 -0.492188 5.875 -0.203125 C 5.457031 0.0859375 4.972656 0.234375 4.421875 0.234375 C 3.492188 0.234375 2.8125 -0.0234375 2.375 -0.546875 C 1.945312 -1.078125 1.734375 -1.90625 1.734375 -3.03125 L 1.734375 -7.46875 L 0.4375 -7.46875 L 0.4375 -8.3125 L 3.171875 -8.3125 L 3.171875 -3.46875 C 3.171875 -2.457031 3.296875 -1.765625 3.546875 -1.390625 C 3.796875 -1.015625 4.238281 -0.828125 4.875 -0.828125 C 5.539062 -0.828125 6.046875 -1.070312 6.390625 -1.5625 C 6.742188 -2.050781 6.921875 -2.765625 6.921875 -3.703125 L 6.921875 -7.46875 L 5.671875 -7.46875 Z M 5.671875 -8.3125 "/>
</g>
<g id="glyph-1-3">
<path d="M 3.28125 -0.828125 L 4.640625 -0.828125 L 4.640625 0 L 0.46875 0 L 0.46875 -0.828125 L 1.84375 -0.828125 L 1.84375 -11.328125 L 0.46875 -11.328125 L 0.46875 -12.15625 L 3.28125 -12.15625 Z M 3.28125 -0.828125 "/>
</g>
<g id="glyph-1-4">
<path d="M 1.734375 -7.46875 L 0.46875 -7.46875 L 0.46875 -8.3125 L 1.734375 -8.3125 L 1.734375 -10.890625 L 3.171875 -10.890625 L 3.171875 -8.3125 L 5.875 -8.3125 L 5.875 -7.46875 L 3.171875 -7.46875 L 3.171875 -2.203125 C 3.171875 -1.492188 3.238281 -1.039062 3.375 -0.84375 C 3.507812 -0.644531 3.757812 -0.546875 4.125 -0.546875 C 4.5 -0.546875 4.769531 -0.65625 4.9375 -0.875 C 5.113281 -1.101562 5.207031 -1.460938 5.21875 -1.953125 L 6.3125 -1.953125 C 6.269531 -1.203125 6.0625 -0.648438 5.6875 -0.296875 C 5.320312 0.0546875 4.757812 0.234375 4 0.234375 C 3.175781 0.234375 2.59375 0.0507812 2.25 -0.3125 C 1.90625 -0.6875 1.734375 -1.316406 1.734375 -2.203125 Z M 1.734375 -7.46875 "/>
</g>
<g id="glyph-1-5">
</g>
<g id="glyph-1-6">
<path d="M 6.5625 -0.609375 C 7.84375 -0.609375 8.804688 -1.046875 9.453125 -1.921875 C 10.109375 -2.804688 10.4375 -4.109375 10.4375 -5.828125 C 10.4375 -7.546875 10.109375 -8.84375 9.453125 -9.71875 C 8.804688 -10.601562 7.84375 -11.046875 6.5625 -11.046875 C 5.28125 -11.046875 4.3125 -10.601562 3.65625 -9.71875 C 3.007812 -8.84375 2.6875 -7.546875 2.6875 -5.828125 C 2.6875 -4.109375 3.007812 -2.804688 3.65625 -1.921875 C 4.3125 -1.046875 5.28125 -0.609375 6.5625 -0.609375 Z M 6.5625 0.234375 C 5.769531 0.234375 5.039062 0.101562 4.375 -0.15625 C 3.71875 -0.425781 3.132812 -0.8125 2.625 -1.3125 C 2.039062 -1.894531 1.609375 -2.554688 1.328125 -3.296875 C 1.046875 -4.035156 0.90625 -4.878906 0.90625 -5.828125 C 0.90625 -6.765625 1.046875 -7.601562 1.328125 -8.34375 C 1.609375 -9.09375 2.039062 -9.757812 2.625 -10.34375 C 3.132812 -10.851562 3.71875 -11.234375 4.375 -11.484375 C 5.03125 -11.742188 5.757812 -11.875 6.5625 -11.875 C 8.257812 -11.875 9.628906 -11.316406 10.671875 -10.203125 C 11.710938 -9.097656 12.234375 -7.640625 12.234375 -5.828125 C 12.234375 -4.890625 12.085938 -4.046875 11.796875 -3.296875 C 11.515625 -2.554688 11.082031 -1.894531 10.5 -1.3125 C 9.988281 -0.800781 9.40625 -0.414062 8.75 -0.15625 C 8.09375 0.101562 7.363281 0.234375 6.5625 0.234375 Z M 6.5625 0.234375 "/>
</g>
<g id="glyph-1-7">
<path d="M 0.65625 0 L 0.65625 -0.828125 L 1.953125 -0.828125 L 1.953125 -7.46875 L 0.578125 -7.46875 L 0.578125 -8.3125 L 3.390625 -8.3125 L 3.390625 -6.828125 C 3.660156 -7.390625 4.003906 -7.8125 4.421875 -8.09375 C 4.847656 -8.382812 5.34375 -8.53125 5.90625 -8.53125 C 6.820312 -8.53125 7.492188 -8.265625 7.921875 -7.734375 C 8.359375 -7.210938 8.578125 -6.394531 8.578125 -5.28125 L 8.578125 -0.828125 L 9.859375 -0.828125 L 9.859375 0 L 5.890625 0 L 5.890625 -0.828125 L 7.140625 -0.828125 L 7.140625 -4.828125 C 7.140625 -5.847656 7.015625 -6.546875 6.765625 -6.921875 C 6.515625 -7.296875 6.070312 -7.484375 5.4375 -7.484375 C 4.769531 -7.484375 4.257812 -7.238281 3.90625 -6.75 C 3.5625 -6.269531 3.390625 -5.5625 3.390625 -4.625 L 3.390625 -0.828125 L 4.640625 -0.828125 L 4.640625 0 Z M 0.65625 0 "/>
</g>
<g id="glyph-1-8">
<path d="M 8.234375 -2.5 C 8.023438 -1.613281 7.628906 -0.9375 7.046875 -0.46875 C 6.472656 0 5.726562 0.234375 4.8125 0.234375 C 3.601562 0.234375 2.628906 -0.164062 1.890625 -0.96875 C 1.160156 -1.769531 0.796875 -2.832031 0.796875 -4.15625 C 0.796875 -5.488281 1.160156 -6.550781 1.890625 -7.34375 C 2.628906 -8.132812 3.601562 -8.53125 4.8125 -8.53125 C 5.34375 -8.53125 5.867188 -8.46875 6.390625 -8.34375 C 6.910156 -8.226562 7.429688 -8.046875 7.953125 -7.796875 L 7.953125 -5.671875 L 7.125 -5.671875 C 7.007812 -6.398438 6.769531 -6.929688 6.40625 -7.265625 C 6.039062 -7.597656 5.515625 -7.765625 4.828125 -7.765625 C 4.054688 -7.765625 3.472656 -7.460938 3.078125 -6.859375 C 2.679688 -6.253906 2.484375 -5.351562 2.484375 -4.15625 C 2.484375 -2.957031 2.675781 -2.054688 3.0625 -1.453125 C 3.457031 -0.847656 4.046875 -0.546875 4.828125 -0.546875 C 5.453125 -0.546875 5.945312 -0.707031 6.3125 -1.03125 C 6.6875 -1.351562 6.941406 -1.84375 7.078125 -2.5 Z M 8.234375 -2.5 "/>
</g>
<g id="glyph-1-9">
<path d="M 4.8125 -0.546875 C 5.582031 -0.546875 6.164062 -0.847656 6.5625 -1.453125 C 6.957031 -2.066406 7.15625 -2.96875 7.15625 -4.15625 C 7.15625 -5.34375 6.957031 -6.238281 6.5625 -6.84375 C 6.164062 -7.457031 5.582031 -7.765625 4.8125 -7.765625 C 4.039062 -7.765625 3.457031 -7.457031 3.0625 -6.84375 C 2.675781 -6.238281 2.484375 -5.34375 2.484375 -4.15625 C 2.484375 -2.96875 2.679688 -2.066406 3.078125 -1.453125 C 3.472656 -0.847656 4.050781 -0.546875 4.8125 -0.546875 Z M 4.8125 0.234375 C 3.601562 0.234375 2.628906 -0.164062 1.890625 -0.96875 C 1.160156 -1.769531 0.796875 -2.832031 0.796875 -4.15625 C 0.796875 -5.476562 1.160156 -6.535156 1.890625 -7.328125 C 2.628906 -8.128906 3.601562 -8.53125 4.8125 -8.53125 C 6.03125 -8.53125 7.003906 -8.128906 7.734375 -7.328125 C 8.460938 -6.535156 8.828125 -5.476562 8.828125 -4.15625 C 8.828125 -2.832031 8.460938 -1.769531 7.734375 -0.96875 C 7.003906 -0.164062 6.03125 0.234375 4.8125 0.234375 Z M 4.8125 0.234375 "/>
</g>
<g id="glyph-1-10">
<path d="M 8.40625 -7.46875 L 8.40625 -0.1875 C 8.40625 1.007812 8.078125 1.929688 7.421875 2.578125 C 6.765625 3.234375 5.828125 3.5625 4.609375 3.5625 C 4.066406 3.5625 3.546875 3.507812 3.046875 3.40625 C 2.546875 3.3125 2.066406 3.164062 1.609375 2.96875 L 1.609375 1.21875 L 2.359375 1.21875 C 2.453125 1.757812 2.671875 2.15625 3.015625 2.40625 C 3.367188 2.65625 3.867188 2.78125 4.515625 2.78125 C 5.359375 2.78125 5.976562 2.539062 6.375 2.0625 C 6.769531 1.59375 6.96875 0.84375 6.96875 -0.1875 L 6.96875 -1.296875 C 6.6875 -0.773438 6.328125 -0.390625 5.890625 -0.140625 C 5.453125 0.109375 4.914062 0.234375 4.28125 0.234375 C 3.257812 0.234375 2.421875 -0.171875 1.765625 -0.984375 C 1.117188 -1.796875 0.796875 -2.851562 0.796875 -4.15625 C 0.796875 -5.457031 1.117188 -6.507812 1.765625 -7.3125 C 2.410156 -8.125 3.25 -8.53125 4.28125 -8.53125 C 4.914062 -8.53125 5.453125 -8.40625 5.890625 -8.15625 C 6.328125 -7.914062 6.6875 -7.535156 6.96875 -7.015625 L 6.96875 -8.3125 L 9.78125 -8.3125 L 9.78125 -7.46875 Z M 6.96875 -4.5625 C 6.96875 -5.5625 6.773438 -6.320312 6.390625 -6.84375 C 6.003906 -7.375 5.445312 -7.640625 4.71875 -7.640625 C 3.976562 -7.640625 3.421875 -7.347656 3.046875 -6.765625 C 2.671875 -6.179688 2.484375 -5.3125 2.484375 -4.15625 C 2.484375 -3.007812 2.671875 -2.140625 3.046875 -1.546875 C 3.421875 -0.960938 3.976562 -0.671875 4.71875 -0.671875 C 5.445312 -0.671875 6.003906 -0.929688 6.390625 -1.453125 C 6.773438 -1.984375 6.96875 -2.75 6.96875 -3.75 Z M 6.96875 -4.5625 "/>
</g>
<g id="glyph-1-11">
<path d="M 3.453125 1.53125 L 4 0.140625 L 0.90625 -7.46875 L -0.046875 -7.46875 L -0.046875 -8.3125 L 3.78125 -8.3125 L 3.78125 -7.46875 L 2.453125 -7.46875 L 4.78125 -1.765625 L 7.125 -7.46875 L 5.875 -7.46875 L 5.875 -8.3125 L 9 -8.3125 L 9 -7.46875 L 8.0625 -7.46875 L 4.265625 1.875 C 4.003906 2.519531 3.710938 2.960938 3.390625 3.203125 C 3.078125 3.441406 2.628906 3.5625 2.046875 3.5625 C 1.804688 3.5625 1.554688 3.539062 1.296875 3.5 C 1.035156 3.457031 0.773438 3.394531 0.515625 3.3125 L 0.515625 1.734375 L 1.25 1.734375 C 1.28125 2.085938 1.367188 2.335938 1.515625 2.484375 C 1.671875 2.640625 1.90625 2.71875 2.21875 2.71875 C 2.5 2.71875 2.726562 2.640625 2.90625 2.484375 C 3.082031 2.328125 3.265625 2.007812 3.453125 1.53125 Z M 3.453125 1.53125 "/>
</g>
<g id="glyph-1-12">
<path d="M 3.0625 0 L 3.0625 -0.828125 L 4.546875 -0.828125 L 4.546875 -10.734375 L 1.125 -10.734375 L 1.125 -8.921875 L 0.15625 -8.921875 L 0.15625 -11.671875 L 10.515625 -11.671875 L 10.515625 -8.921875 L 9.5625 -8.921875 L 9.5625 -10.734375 L 6.125 -10.734375 L 6.125 -0.828125 L 7.625 -0.828125 L 7.625 0 Z M 3.0625 0 "/>
</g>
<g id="glyph-1-13">
<path d="M 7.65625 -8.328125 L 7.65625 -6.25 L 6.828125 -6.25 C 6.796875 -6.65625 6.675781 -6.957031 6.46875 -7.15625 C 6.269531 -7.363281 5.976562 -7.46875 5.59375 -7.46875 C 4.882812 -7.46875 4.335938 -7.222656 3.953125 -6.734375 C 3.578125 -6.242188 3.390625 -5.539062 3.390625 -4.625 L 3.390625 -0.828125 L 5.0625 -0.828125 L 5.0625 0 L 0.65625 0 L 0.65625 -0.828125 L 1.953125 -0.828125 L 1.953125 -7.484375 L 0.578125 -7.484375 L 0.578125 -8.3125 L 3.390625 -8.3125 L 3.390625 -6.828125 C 3.671875 -7.410156 4.03125 -7.835938 4.46875 -8.109375 C 4.914062 -8.390625 5.457031 -8.53125 6.09375 -8.53125 C 6.332031 -8.53125 6.578125 -8.507812 6.828125 -8.46875 C 7.085938 -8.4375 7.363281 -8.390625 7.65625 -8.328125 Z M 7.65625 -8.328125 "/>
</g>
<g id="glyph-1-14">
<path d="M 1.5625 -10.890625 C 1.5625 -11.128906 1.644531 -11.335938 1.8125 -11.515625 C 1.988281 -11.691406 2.203125 -11.78125 2.453125 -11.78125 C 2.691406 -11.78125 2.894531 -11.691406 3.0625 -11.515625 C 3.238281 -11.335938 3.328125 -11.128906 3.328125 -10.890625 C 3.328125 -10.640625 3.238281 -10.425781 3.0625 -10.25 C 2.894531 -10.082031 2.691406 -10 2.453125 -10 C 2.203125 -10 1.988281 -10.082031 1.8125 -10.25 C 1.644531 -10.425781 1.5625 -10.640625 1.5625 -10.890625 Z M 3.390625 -0.828125 L 4.75 -0.828125 L 4.75 0 L 0.578125 0 L 0.578125 -0.828125 L 1.953125 -0.828125 L 1.953125 -7.46875 L 0.578125 -7.46875 L 0.578125 -8.3125 L 3.390625 -8.3125 Z M 3.390625 -0.828125 "/>
</g>
<g id="glyph-1-15">
<path d="M 6.375 -2.609375 L 6.375 -4.375 L 4.515625 -4.375 C 3.804688 -4.375 3.273438 -4.21875 2.921875 -3.90625 C 2.578125 -3.601562 2.40625 -3.132812 2.40625 -2.5 C 2.40625 -1.914062 2.582031 -1.453125 2.9375 -1.109375 C 3.289062 -0.773438 3.769531 -0.609375 4.375 -0.609375 C 4.96875 -0.609375 5.445312 -0.789062 5.8125 -1.15625 C 6.1875 -1.53125 6.375 -2.015625 6.375 -2.609375 Z M 7.8125 -5.1875 L 7.8125 -0.828125 L 9.09375 -0.828125 L 9.09375 0 L 6.375 0 L 6.375 -0.90625 C 6.050781 -0.519531 5.679688 -0.234375 5.265625 -0.046875 C 4.847656 0.140625 4.363281 0.234375 3.8125 0.234375 C 2.882812 0.234375 2.148438 -0.0078125 1.609375 -0.5 C 1.066406 -1 0.796875 -1.664062 0.796875 -2.5 C 0.796875 -3.351562 1.101562 -4.015625 1.71875 -4.484375 C 2.34375 -4.960938 3.222656 -5.203125 4.359375 -5.203125 L 6.375 -5.203125 L 6.375 -5.78125 C 6.375 -6.40625 6.179688 -6.890625 5.796875 -7.234375 C 5.410156 -7.585938 4.875 -7.765625 4.1875 -7.765625 C 3.613281 -7.765625 3.15625 -7.632812 2.8125 -7.375 C 2.476562 -7.113281 2.269531 -6.726562 2.1875 -6.21875 L 1.4375 -6.21875 L 1.4375 -7.890625 C 1.9375 -8.109375 2.421875 -8.269531 2.890625 -8.375 C 3.367188 -8.476562 3.832031 -8.53125 4.28125 -8.53125 C 5.425781 -8.53125 6.300781 -8.242188 6.90625 -7.671875 C 7.507812 -7.109375 7.8125 -6.28125 7.8125 -5.1875 Z M 7.8125 -5.1875 "/>
</g>
<g id="glyph-1-16">
<path d="M 1.484375 -0.5625 L 1.484375 -3.21875 L 2.390625 -3.21875 C 2.410156 -2.332031 2.664062 -1.675781 3.15625 -1.25 C 3.644531 -0.820312 4.382812 -0.609375 5.375 -0.609375 C 6.300781 -0.609375 7.007812 -0.789062 7.5 -1.15625 C 7.988281 -1.53125 8.234375 -2.066406 8.234375 -2.765625 C 8.234375 -3.328125 8.082031 -3.757812 7.78125 -4.0625 C 7.488281 -4.363281 6.867188 -4.660156 5.921875 -4.953125 L 4.390625 -5.40625 C 3.273438 -5.75 2.488281 -6.171875 2.03125 -6.671875 C 1.570312 -7.179688 1.34375 -7.875 1.34375 -8.75 C 1.34375 -9.738281 1.691406 -10.503906 2.390625 -11.046875 C 3.097656 -11.597656 4.085938 -11.875 5.359375 -11.875 C 5.898438 -11.875 6.492188 -11.816406 7.140625 -11.703125 C 7.785156 -11.585938 8.472656 -11.414062 9.203125 -11.1875 L 9.203125 -8.703125 L 8.328125 -8.703125 C 8.234375 -9.523438 7.957031 -10.117188 7.5 -10.484375 C 7.039062 -10.859375 6.335938 -11.046875 5.390625 -11.046875 C 4.566406 -11.046875 3.941406 -10.875 3.515625 -10.53125 C 3.085938 -10.195312 2.875 -9.710938 2.875 -9.078125 C 2.875 -8.515625 3.035156 -8.070312 3.359375 -7.75 C 3.679688 -7.4375 4.363281 -7.125 5.40625 -6.8125 L 6.859375 -6.390625 C 7.910156 -6.066406 8.660156 -5.660156 9.109375 -5.171875 C 9.566406 -4.679688 9.796875 -4.019531 9.796875 -3.1875 C 9.796875 -2.0625 9.429688 -1.207031 8.703125 -0.625 C 7.984375 -0.0507812 6.90625 0.234375 5.46875 0.234375 C 4.832031 0.234375 4.179688 0.164062 3.515625 0.03125 C 2.847656 -0.101562 2.171875 -0.300781 1.484375 -0.5625 Z M 1.484375 -0.5625 "/>
</g>
<g id="glyph-1-17">
<path d="M 8.671875 -4 L 2.484375 -4 L 2.484375 -3.9375 C 2.484375 -2.820312 2.691406 -1.976562 3.109375 -1.40625 C 3.535156 -0.832031 4.160156 -0.546875 4.984375 -0.546875 C 5.609375 -0.546875 6.125 -0.710938 6.53125 -1.046875 C 6.9375 -1.378906 7.21875 -1.867188 7.375 -2.515625 L 8.53125 -2.515625 C 8.300781 -1.609375 7.878906 -0.921875 7.265625 -0.453125 C 6.648438 0.00390625 5.835938 0.234375 4.828125 0.234375 C 3.617188 0.234375 2.644531 -0.164062 1.90625 -0.96875 C 1.164062 -1.769531 0.796875 -2.832031 0.796875 -4.15625 C 0.796875 -5.46875 1.15625 -6.523438 1.875 -7.328125 C 2.601562 -8.128906 3.554688 -8.53125 4.734375 -8.53125 C 5.992188 -8.53125 6.957031 -8.144531 7.625 -7.375 C 8.300781 -6.601562 8.648438 -5.476562 8.671875 -4 Z M 6.984375 -4.828125 C 6.953125 -5.796875 6.742188 -6.523438 6.359375 -7.015625 C 5.984375 -7.515625 5.441406 -7.765625 4.734375 -7.765625 C 4.078125 -7.765625 3.554688 -7.515625 3.171875 -7.015625 C 2.796875 -6.523438 2.566406 -5.796875 2.484375 -4.828125 Z M 6.984375 -4.828125 "/>
</g>
<g id="glyph-2-0">
<path d="M 2.46875 -0.515625 L 3.40625 -0.515625 L 3.40625 0 L 0.546875 0 L 0.546875 -0.515625 L 1.484375 -0.515625 L 1.484375 -6.765625 L 0.546875 -6.765625 L 0.546875 -7.296875 L 3.40625 -7.296875 L 3.40625 -6.765625 L 2.46875 -6.765625 Z M 2.46875 -0.515625 "/>
</g>
<g id="glyph-2-1">
<path d="M 0.921875 -0.359375 L 0.921875 -2.015625 L 1.484375 -2 C 1.503906 -1.445312 1.664062 -1.035156 1.96875 -0.765625 C 2.269531 -0.503906 2.734375 -0.375 3.359375 -0.375 C 3.941406 -0.375 4.382812 -0.488281 4.6875 -0.71875 C 4.988281 -0.945312 5.140625 -1.285156 5.140625 -1.734375 C 5.140625 -2.078125 5.046875 -2.34375 4.859375 -2.53125 C 4.679688 -2.726562 4.296875 -2.914062 3.703125 -3.09375 L 2.734375 -3.375 C 2.035156 -3.59375 1.546875 -3.859375 1.265625 -4.171875 C 0.984375 -4.484375 0.84375 -4.914062 0.84375 -5.46875 C 0.84375 -6.082031 1.0625 -6.5625 1.5 -6.90625 C 1.9375 -7.25 2.550781 -7.421875 3.34375 -7.421875 C 3.6875 -7.421875 4.054688 -7.382812 4.453125 -7.3125 C 4.859375 -7.238281 5.289062 -7.132812 5.75 -7 L 5.75 -5.4375 L 5.203125 -5.4375 C 5.148438 -5.957031 4.976562 -6.332031 4.6875 -6.5625 C 4.394531 -6.789062 3.957031 -6.90625 3.375 -6.90625 C 2.851562 -6.90625 2.457031 -6.796875 2.1875 -6.578125 C 1.925781 -6.367188 1.796875 -6.066406 1.796875 -5.671875 C 1.796875 -5.316406 1.894531 -5.039062 2.09375 -4.84375 C 2.289062 -4.644531 2.71875 -4.453125 3.375 -4.265625 L 4.28125 -3.984375 C 4.945312 -3.785156 5.421875 -3.53125 5.703125 -3.21875 C 5.984375 -2.914062 6.125 -2.507812 6.125 -2 C 6.125 -1.289062 5.894531 -0.753906 5.4375 -0.390625 C 4.988281 -0.0351562 4.316406 0.140625 3.421875 0.140625 C 3.015625 0.140625 2.601562 0.0976562 2.1875 0.015625 C 1.78125 -0.0664062 1.359375 -0.191406 0.921875 -0.359375 Z M 0.921875 -0.359375 "/>
</g>
<g id="glyph-2-2">
<path d="M 4.109375 -0.375 C 4.898438 -0.375 5.5 -0.648438 5.90625 -1.203125 C 6.3125 -1.753906 6.515625 -2.566406 6.515625 -3.640625 C 6.515625 -4.710938 6.3125 -5.523438 5.90625 -6.078125 C 5.5 -6.628906 4.898438 -6.90625 4.109375 -6.90625 C 3.304688 -6.90625 2.703125 -6.628906 2.296875 -6.078125 C 1.890625 -5.523438 1.6875 -4.710938 1.6875 -3.640625 C 1.6875 -2.566406 1.890625 -1.753906 2.296875 -1.203125 C 2.703125 -0.648438 3.304688 -0.375 4.109375 -0.375 Z M 4.109375 0.140625 C 3.609375 0.140625 3.148438 0.0625 2.734375 -0.09375 C 2.316406 -0.257812 1.953125 -0.503906 1.640625 -0.828125 C 1.273438 -1.191406 1.003906 -1.601562 0.828125 -2.0625 C 0.648438 -2.519531 0.5625 -3.046875 0.5625 -3.640625 C 0.5625 -4.222656 0.648438 -4.742188 0.828125 -5.203125 C 1.003906 -5.671875 1.273438 -6.085938 1.640625 -6.453125 C 1.960938 -6.773438 2.328125 -7.015625 2.734375 -7.171875 C 3.140625 -7.335938 3.597656 -7.421875 4.109375 -7.421875 C 5.160156 -7.421875 6.007812 -7.070312 6.65625 -6.375 C 7.3125 -5.6875 7.640625 -4.773438 7.640625 -3.640625 C 7.640625 -3.054688 7.550781 -2.53125 7.375 -2.0625 C 7.195312 -1.59375 6.925781 -1.179688 6.5625 -0.828125 C 6.238281 -0.503906 5.867188 -0.257812 5.453125 -0.09375 C 5.046875 0.0625 4.597656 0.140625 4.109375 0.140625 Z M 4.109375 0.140625 "/>
</g>
<g id="glyph-2-3">
</g>
<g id="glyph-2-4">
<path d="M 5.640625 -6.796875 L 2.78125 0 L 2.0625 0 L 4.78125 -6.484375 L 1.40625 -6.484375 L 1.40625 -5.59375 L 0.84375 -5.59375 L 0.84375 -7.296875 L 5.640625 -7.296875 Z M 5.640625 -6.796875 "/>
</g>
<g id="glyph-2-5">
<path d="M 3.171875 -0.34375 C 3.671875 -0.34375 4.046875 -0.613281 4.296875 -1.15625 C 4.546875 -1.707031 4.671875 -2.535156 4.671875 -3.640625 C 4.671875 -4.742188 4.546875 -5.566406 4.296875 -6.109375 C 4.046875 -6.660156 3.671875 -6.9375 3.171875 -6.9375 C 2.679688 -6.9375 2.3125 -6.660156 2.0625 -6.109375 C 1.8125 -5.566406 1.6875 -4.742188 1.6875 -3.640625 C 1.6875 -2.535156 1.8125 -1.707031 2.0625 -1.15625 C 2.3125 -0.613281 2.679688 -0.34375 3.171875 -0.34375 Z M 3.171875 0.140625 C 2.390625 0.140625 1.773438 -0.1875 1.328125 -0.84375 C 0.878906 -1.507812 0.65625 -2.441406 0.65625 -3.640625 C 0.65625 -4.835938 0.878906 -5.765625 1.328125 -6.421875 C 1.773438 -7.085938 2.390625 -7.421875 3.171875 -7.421875 C 3.972656 -7.421875 4.59375 -7.085938 5.03125 -6.421875 C 5.476562 -5.765625 5.703125 -4.835938 5.703125 -3.640625 C 5.703125 -2.441406 5.476562 -1.507812 5.03125 -0.84375 C 4.59375 -0.1875 3.972656 0.140625 3.171875 0.140625 Z M 3.171875 0.140625 "/>
</g>
<g id="glyph-2-6">
<path d="M 1.421875 0 L 1.421875 -0.515625 L 2.6875 -0.515625 L 2.6875 -6.578125 L 1.21875 -5.625 L 1.21875 -6.265625 L 3 -7.421875 L 3.671875 -7.421875 L 3.671875 -0.515625 L 4.9375 -0.515625 L 4.9375 0 Z M 1.421875 0 "/>
</g>
<g id="glyph-3-0">
<path d="M 10.609375 -7.125 C 11.191406 -7.039062 11.679688 -6.847656 12.078125 -6.546875 C 12.472656 -6.242188 12.816406 -5.8125 13.109375 -5.25 L 15.25 -1.1875 L 16.734375 -1.1875 L 16.734375 0 L 11.9375 0 L 9.625 -4.40625 C 9.175781 -5.3125 8.789062 -5.890625 8.46875 -6.140625 C 8.15625 -6.398438 7.71875 -6.53125 7.15625 -6.53125 L 6.5625 -6.53125 L 6.5625 -1.1875 L 8.4375 -1.1875 L 8.4375 0 L 0.9375 0 L 0.9375 -1.1875 L 2.796875 -1.1875 L 2.796875 -13.40625 L 0.9375 -13.40625 L 0.9375 -14.578125 L 9.265625 -14.578125 C 10.953125 -14.578125 12.253906 -14.238281 13.171875 -13.5625 C 14.097656 -12.882812 14.5625 -11.921875 14.5625 -10.671875 C 14.5625 -9.648438 14.234375 -8.84375 13.578125 -8.25 C 12.921875 -7.664062 11.929688 -7.289062 10.609375 -7.125 Z M 6.5625 -7.703125 L 7.84375 -7.703125 C 8.75 -7.703125 9.445312 -7.945312 9.9375 -8.4375 C 10.4375 -8.9375 10.6875 -9.644531 10.6875 -10.5625 C 10.6875 -11.476562 10.4375 -12.179688 9.9375 -12.671875 C 9.445312 -13.160156 8.75 -13.40625 7.84375 -13.40625 L 6.5625 -13.40625 Z M 6.5625 -7.703125 "/>
</g>
<g id="glyph-3-1">
<path d="M 6.6875 -0.828125 C 7.414062 -0.828125 7.925781 -1.140625 8.21875 -1.765625 C 8.507812 -2.390625 8.65625 -3.535156 8.65625 -5.203125 C 8.65625 -6.867188 8.507812 -8.007812 8.21875 -8.625 C 7.925781 -9.25 7.414062 -9.5625 6.6875 -9.5625 C 5.945312 -9.5625 5.425781 -9.242188 5.125 -8.609375 C 4.820312 -7.984375 4.671875 -6.847656 4.671875 -5.203125 C 4.671875 -3.546875 4.820312 -2.398438 5.125 -1.765625 C 5.425781 -1.140625 5.945312 -0.828125 6.6875 -0.828125 Z M 6.6875 0.28125 C 4.851562 0.28125 3.414062 -0.203125 2.375 -1.171875 C 1.34375 -2.148438 0.828125 -3.492188 0.828125 -5.203125 C 0.828125 -6.910156 1.34375 -8.25 2.375 -9.21875 C 3.414062 -10.1875 4.851562 -10.671875 6.6875 -10.671875 C 8.519531 -10.671875 9.953125 -10.1875 10.984375 -9.21875 C 12.023438 -8.25 12.546875 -6.910156 12.546875 -5.203125 C 12.546875 -3.492188 12.023438 -2.148438 10.984375 -1.171875 C 9.941406 -0.203125 8.507812 0.28125 6.6875 0.28125 Z M 6.6875 0.28125 "/>
</g>
<g id="glyph-3-2">
<path d="M 1.9375 -1.1875 L 1.9375 -14.03125 L 0.453125 -14.03125 L 0.453125 -15.203125 L 5.40625 -15.203125 L 5.40625 -9.0625 C 5.695312 -9.601562 6.085938 -10.003906 6.578125 -10.265625 C 7.078125 -10.535156 7.691406 -10.671875 8.421875 -10.671875 C 9.898438 -10.671875 11.0625 -10.179688 11.90625 -9.203125 C 12.757812 -8.234375 13.1875 -6.898438 13.1875 -5.203125 C 13.1875 -3.492188 12.757812 -2.148438 11.90625 -1.171875 C 11.0625 -0.203125 9.898438 0.28125 8.421875 0.28125 C 7.691406 0.28125 7.078125 0.148438 6.578125 -0.109375 C 6.085938 -0.378906 5.695312 -0.78125 5.40625 -1.3125 L 5.40625 0 L 0.453125 0 L 0.453125 -1.1875 Z M 5.40625 -4.671875 C 5.40625 -3.460938 5.554688 -2.585938 5.859375 -2.046875 C 6.171875 -1.503906 6.671875 -1.234375 7.359375 -1.234375 C 8.066406 -1.234375 8.566406 -1.519531 8.859375 -2.09375 C 9.148438 -2.664062 9.296875 -3.703125 9.296875 -5.203125 C 9.296875 -6.691406 9.148438 -7.71875 8.859375 -8.28125 C 8.566406 -8.851562 8.066406 -9.140625 7.359375 -9.140625 C 6.671875 -9.140625 6.171875 -8.867188 5.859375 -8.328125 C 5.554688 -7.785156 5.40625 -6.910156 5.40625 -5.703125 Z M 5.40625 -4.671875 "/>
</g>
<g id="glyph-3-3">
<path d="M 1.984375 -9.203125 L 0.484375 -9.203125 L 0.484375 -10.375 L 1.984375 -10.375 L 1.984375 -13.609375 L 5.4375 -13.609375 L 5.4375 -10.375 L 8.328125 -10.375 L 8.328125 -9.203125 L 5.4375 -9.203125 L 5.4375 -2.84375 C 5.4375 -1.9375 5.507812 -1.375 5.65625 -1.15625 C 5.800781 -0.9375 6.0625 -0.828125 6.4375 -0.828125 C 6.851562 -0.828125 7.160156 -0.960938 7.359375 -1.234375 C 7.566406 -1.515625 7.675781 -1.953125 7.6875 -2.546875 L 9.140625 -2.546875 C 9.078125 -1.503906 8.789062 -0.769531 8.28125 -0.34375 C 7.769531 0.0703125 6.890625 0.28125 5.640625 0.28125 C 4.210938 0.28125 3.242188 0.0546875 2.734375 -0.390625 C 2.234375 -0.835938 1.984375 -1.65625 1.984375 -2.84375 Z M 1.984375 -9.203125 "/>
</g>
<g id="glyph-3-4">
<path d="M 1.84375 -13.328125 C 1.84375 -13.847656 2.023438 -14.289062 2.390625 -14.65625 C 2.753906 -15.019531 3.195312 -15.203125 3.71875 -15.203125 C 4.238281 -15.203125 4.675781 -15.019531 5.03125 -14.65625 C 5.394531 -14.289062 5.578125 -13.847656 5.578125 -13.328125 C 5.578125 -12.804688 5.394531 -12.363281 5.03125 -12 C 4.675781 -11.644531 4.238281 -11.46875 3.71875 -11.46875 C 3.195312 -11.46875 2.753906 -11.644531 2.390625 -12 C 2.023438 -12.363281 1.84375 -12.804688 1.84375 -13.328125 Z M 5.609375 -1.1875 L 7.09375 -1.1875 L 7.09375 0 L 0.6875 0 L 0.6875 -1.1875 L 2.15625 -1.1875 L 2.15625 -9.203125 L 0.6875 -9.203125 L 0.6875 -10.375 L 5.609375 -10.375 Z M 5.609375 -1.1875 "/>
</g>
<g id="glyph-3-5">
<path d="M 11.28125 -3.25 C 11.03125 -2.0625 10.519531 -1.175781 9.75 -0.59375 C 8.988281 -0.0078125 7.953125 0.28125 6.640625 0.28125 C 4.796875 0.28125 3.363281 -0.195312 2.34375 -1.15625 C 1.332031 -2.113281 0.828125 -3.460938 0.828125 -5.203125 C 0.828125 -6.921875 1.328125 -8.257812 2.328125 -9.21875 C 3.328125 -10.1875 4.71875 -10.671875 6.5 -10.671875 C 7.226562 -10.671875 7.957031 -10.597656 8.6875 -10.453125 C 9.425781 -10.316406 10.175781 -10.113281 10.9375 -9.84375 L 10.9375 -6.96875 L 9.84375 -6.96875 C 9.738281 -7.84375 9.476562 -8.492188 9.0625 -8.921875 C 8.65625 -9.347656 8.082031 -9.5625 7.34375 -9.5625 C 6.382812 -9.5625 5.695312 -9.234375 5.28125 -8.578125 C 4.875 -7.929688 4.671875 -6.804688 4.671875 -5.203125 C 4.671875 -3.628906 4.867188 -2.503906 5.265625 -1.828125 C 5.671875 -1.160156 6.320312 -0.828125 7.21875 -0.828125 C 7.914062 -0.828125 8.472656 -1.035156 8.890625 -1.453125 C 9.304688 -1.867188 9.5625 -2.46875 9.65625 -3.25 Z M 11.28125 -3.25 "/>
</g>
<g id="glyph-3-6">
</g>
<g id="glyph-3-7">
<path d="M 0.875 0 L 0.875 -1.1875 L 2.75 -1.1875 L 2.75 -13.40625 L 0.875 -13.40625 L 0.875 -14.578125 L 5.4375 -14.578125 L 14.234375 -4.265625 L 14.234375 -13.40625 L 12.390625 -13.40625 L 12.390625 -14.578125 L 17.484375 -14.578125 L 17.484375 -13.40625 L 15.609375 -13.40625 L 15.609375 0 L 13.0625 0 L 4.125 -10.53125 L 4.125 -1.1875 L 5.984375 -1.1875 L 5.984375 0 Z M 0.875 0 "/>
</g>
<g id="glyph-3-8">
<path d="M 8.015625 -5.859375 C 8.015625 -7.222656 7.882812 -8.179688 7.625 -8.734375 C 7.375 -9.285156 6.945312 -9.5625 6.34375 -9.5625 C 5.75 -9.5625 5.320312 -9.289062 5.0625 -8.75 C 4.800781 -8.207031 4.671875 -7.300781 4.671875 -6.03125 L 4.671875 -5.859375 Z M 11.8125 -4.703125 L 4.671875 -4.703125 L 4.671875 -4.625 C 4.671875 -3.28125 4.875 -2.3125 5.28125 -1.71875 C 5.6875 -1.125 6.335938 -0.828125 7.234375 -0.828125 C 7.984375 -0.828125 8.585938 -1.023438 9.046875 -1.421875 C 9.515625 -1.816406 9.8125 -2.390625 9.9375 -3.140625 L 11.5625 -3.140625 C 11.28125 -1.960938 10.722656 -1.097656 9.890625 -0.546875 C 9.054688 0.00390625 7.890625 0.28125 6.390625 0.28125 C 4.597656 0.28125 3.222656 -0.191406 2.265625 -1.140625 C 1.304688 -2.085938 0.828125 -3.441406 0.828125 -5.203125 C 0.828125 -6.921875 1.316406 -8.257812 2.296875 -9.21875 C 3.273438 -10.1875 4.640625 -10.671875 6.390625 -10.671875 C 8.109375 -10.671875 9.425781 -10.160156 10.34375 -9.140625 C 11.269531 -8.128906 11.757812 -6.648438 11.8125 -4.703125 Z M 11.8125 -4.703125 "/>
</g>
<g id="glyph-3-9">
<path d="M 8.578125 -4.671875 L 8.578125 -5.703125 C 8.578125 -6.910156 8.421875 -7.785156 8.109375 -8.328125 C 7.796875 -8.867188 7.300781 -9.140625 6.625 -9.140625 C 5.90625 -9.140625 5.398438 -8.851562 5.109375 -8.28125 C 4.816406 -7.71875 4.671875 -6.691406 4.671875 -5.203125 C 4.671875 -3.703125 4.816406 -2.664062 5.109375 -2.09375 C 5.410156 -1.519531 5.914062 -1.234375 6.625 -1.234375 C 7.300781 -1.234375 7.796875 -1.503906 8.109375 -2.046875 C 8.421875 -2.585938 8.578125 -3.460938 8.578125 -4.671875 Z M 12.046875 -1.1875 L 13.515625 -1.1875 L 13.515625 0 L 8.578125 0 L 8.578125 -1.3125 C 8.285156 -0.78125 7.890625 -0.378906 7.390625 -0.109375 C 6.898438 0.148438 6.289062 0.28125 5.5625 0.28125 C 4.082031 0.28125 2.921875 -0.203125 2.078125 -1.171875 C 1.242188 -2.148438 0.828125 -3.492188 0.828125 -5.203125 C 0.828125 -6.898438 1.242188 -8.234375 2.078125 -9.203125 C 2.921875 -10.179688 4.082031 -10.671875 5.5625 -10.671875 C 6.289062 -10.671875 6.898438 -10.535156 7.390625 -10.265625 C 7.890625 -10.003906 8.285156 -9.601562 8.578125 -9.0625 L 8.578125 -14.03125 L 7.09375 -14.03125 L 7.09375 -15.203125 L 12.046875 -15.203125 Z M 12.046875 -1.1875 "/>
</g>
<g id="glyph-3-10">
<path d="M 5.609375 -1.1875 L 7.09375 -1.1875 L 7.09375 0 L 0.6875 0 L 0.6875 -1.1875 L 2.15625 -1.1875 L 2.15625 -14.03125 L 0.6875 -14.03125 L 0.6875 -15.203125 L 5.609375 -15.203125 Z M 5.609375 -1.1875 "/>
</g>
<g id="glyph-3-11">
<path d="M 1.078125 -6.6875 L 7.21875 -6.6875 L 7.21875 -4.046875 L 1.078125 -4.046875 Z M 1.078125 -6.6875 "/>
</g>
<g id="glyph-3-12">
<path d="M 0.9375 0 L 0.9375 -1.1875 L 2.796875 -1.1875 L 2.796875 -13.40625 L 0.9375 -13.40625 L 0.9375 -14.578125 L 9.234375 -14.578125 C 10.859375 -14.578125 12.148438 -14.191406 13.109375 -13.421875 C 14.066406 -12.648438 14.546875 -11.617188 14.546875 -10.328125 C 14.546875 -9.023438 14.0625 -7.984375 13.09375 -7.203125 C 12.132812 -6.421875 10.847656 -6.03125 9.234375 -6.03125 L 6.5625 -6.03125 L 6.5625 -1.1875 L 8.921875 -1.1875 L 8.921875 0 Z M 6.5625 -7.21875 L 7.65625 -7.21875 C 8.5 -7.21875 9.171875 -7.5 9.671875 -8.0625 C 10.179688 -8.625 10.4375 -9.378906 10.4375 -10.328125 C 10.4375 -11.265625 10.1875 -12.007812 9.6875 -12.5625 C 9.1875 -13.125 8.507812 -13.40625 7.65625 -13.40625 L 6.5625 -13.40625 Z M 6.5625 -7.21875 "/>
</g>
<g id="glyph-3-13">
<path d="M 11.015625 -6.375 L 11.015625 -1.1875 L 12.5 -1.1875 L 12.5 0 L 7.5625 0 L 7.5625 -1.3125 C 7.101562 -0.769531 6.59375 -0.367188 6.03125 -0.109375 C 5.476562 0.148438 4.84375 0.28125 4.125 0.28125 C 3.0625 0.28125 2.242188 0 1.671875 -0.5625 C 1.109375 -1.132812 0.828125 -1.953125 0.828125 -3.015625 C 0.828125 -4.179688 1.234375 -5.050781 2.046875 -5.625 C 2.859375 -6.207031 4.09375 -6.5 5.75 -6.5 L 7.5625 -6.5 L 7.5625 -7.125 C 7.5625 -7.957031 7.363281 -8.570312 6.96875 -8.96875 C 6.570312 -9.375 5.957031 -9.578125 5.125 -9.578125 C 4.425781 -9.578125 3.890625 -9.4375 3.515625 -9.15625 C 3.140625 -8.875 2.875 -8.410156 2.71875 -7.765625 L 1.625 -7.765625 L 1.625 -10 C 2.238281 -10.21875 2.878906 -10.382812 3.546875 -10.5 C 4.210938 -10.613281 4.910156 -10.671875 5.640625 -10.671875 C 7.492188 -10.671875 8.851562 -10.320312 9.71875 -9.625 C 10.582031 -8.9375 11.015625 -7.851562 11.015625 -6.375 Z M 7.5625 -3.265625 L 7.5625 -5.34375 L 6.265625 -5.34375 C 5.617188 -5.34375 5.125 -5.164062 4.78125 -4.8125 C 4.4375 -4.457031 4.265625 -3.953125 4.265625 -3.296875 C 4.265625 -2.640625 4.390625 -2.148438 4.640625 -1.828125 C 4.890625 -1.503906 5.269531 -1.34375 5.78125 -1.34375 C 6.3125 -1.34375 6.738281 -1.515625 7.0625 -1.859375 C 7.394531 -2.210938 7.5625 -2.679688 7.5625 -3.265625 Z M 7.5625 -3.265625 "/>
</g>
<g id="glyph-3-14">
<path d="M 12.140625 -8.6875 C 12.617188 -9.375 13.140625 -9.875 13.703125 -10.1875 C 14.265625 -10.507812 14.921875 -10.671875 15.671875 -10.671875 C 16.859375 -10.671875 17.742188 -10.332031 18.328125 -9.65625 C 18.921875 -8.976562 19.21875 -7.960938 19.21875 -6.609375 L 19.21875 -1.1875 L 20.703125 -1.1875 L 20.703125 0 L 14.515625 0 L 14.515625 -1.1875 L 15.765625 -1.1875 L 15.765625 -6.078125 C 15.765625 -7.378906 15.664062 -8.195312 15.46875 -8.53125 C 15.269531 -8.875 14.898438 -9.046875 14.359375 -9.046875 C 13.742188 -9.046875 13.265625 -8.804688 12.921875 -8.328125 C 12.585938 -7.859375 12.421875 -7.1875 12.421875 -6.3125 L 12.421875 -1.1875 L 13.65625 -1.1875 L 13.65625 0 L 7.71875 0 L 7.71875 -1.1875 L 8.96875 -1.1875 L 8.96875 -6.078125 C 8.96875 -7.378906 8.863281 -8.195312 8.65625 -8.53125 C 8.457031 -8.875 8.09375 -9.046875 7.5625 -9.046875 C 6.9375 -9.046875 6.453125 -8.804688 6.109375 -8.328125 C 5.773438 -7.859375 5.609375 -7.1875 5.609375 -6.3125 L 5.609375 -1.1875 L 6.859375 -1.1875 L 6.859375 0 L 0.6875 0 L 0.6875 -1.1875 L 2.15625 -1.1875 L 2.15625 -9.203125 L 0.6875 -9.203125 L 0.6875 -10.375 L 5.609375 -10.375 L 5.609375 -8.921875 C 6.015625 -9.523438 6.476562 -9.96875 7 -10.25 C 7.519531 -10.53125 8.140625 -10.671875 8.859375 -10.671875 C 9.703125 -10.671875 10.382812 -10.507812 10.90625 -10.1875 C 11.4375 -9.863281 11.847656 -9.363281 12.140625 -8.6875 Z M 12.140625 -8.6875 "/>
</g>
<g id="glyph-3-15">
<path d="M 0.6875 0 L 0.6875 -1.1875 L 2.15625 -1.1875 L 2.15625 -9.203125 L 0.6875 -9.203125 L 0.6875 -10.375 L 5.609375 -10.375 L 5.609375 -8.921875 C 6.023438 -9.535156 6.5 -9.976562 7.03125 -10.25 C 7.570312 -10.53125 8.25 -10.671875 9.0625 -10.671875 C 10.226562 -10.671875 11.109375 -10.328125 11.703125 -9.640625 C 12.296875 -8.953125 12.59375 -7.941406 12.59375 -6.609375 L 12.59375 -1.1875 L 14.078125 -1.1875 L 14.078125 0 L 7.875 0 L 7.875 -1.1875 L 9.140625 -1.1875 L 9.140625 -6.703125 C 9.140625 -7.578125 9.023438 -8.1875 8.796875 -8.53125 C 8.578125 -8.875 8.191406 -9.046875 7.640625 -9.046875 C 6.941406 -9.046875 6.425781 -8.789062 6.09375 -8.28125 C 5.769531 -7.769531 5.609375 -6.957031 5.609375 -5.84375 L 5.609375 -1.1875 L 6.890625 -1.1875 L 6.890625 0 Z M 0.6875 0 "/>
</g>
<g id="glyph-3-16">
<path d="M 1.546875 -0.703125 L 1.546875 -4.15625 L 2.78125 -4.15625 C 2.96875 -3.0625 3.410156 -2.242188 4.109375 -1.703125 C 4.816406 -1.171875 5.796875 -0.90625 7.046875 -0.90625 C 8.054688 -0.90625 8.820312 -1.09375 9.34375 -1.46875 C 9.875 -1.851562 10.140625 -2.421875 10.140625 -3.171875 C 10.140625 -3.753906 9.957031 -4.207031 9.59375 -4.53125 C 9.238281 -4.851562 8.503906 -5.15625 7.390625 -5.4375 L 5.203125 -5.984375 C 3.773438 -6.347656 2.769531 -6.851562 2.1875 -7.5 C 1.601562 -8.144531 1.3125 -9.066406 1.3125 -10.265625 C 1.3125 -11.710938 1.789062 -12.835938 2.75 -13.640625 C 3.71875 -14.441406 5.066406 -14.84375 6.796875 -14.84375 C 7.648438 -14.84375 8.535156 -14.769531 9.453125 -14.625 C 10.378906 -14.488281 11.335938 -14.273438 12.328125 -13.984375 L 12.328125 -10.765625 L 11.078125 -10.765625 C 10.890625 -11.765625 10.476562 -12.492188 9.84375 -12.953125 C 9.207031 -13.421875 8.300781 -13.65625 7.125 -13.65625 C 6.15625 -13.65625 5.425781 -13.488281 4.9375 -13.15625 C 4.445312 -12.820312 4.203125 -12.320312 4.203125 -11.65625 C 4.203125 -11.050781 4.367188 -10.59375 4.703125 -10.28125 C 5.046875 -9.96875 5.878906 -9.640625 7.203125 -9.296875 L 9.390625 -8.765625 C 10.742188 -8.421875 11.722656 -7.890625 12.328125 -7.171875 C 12.941406 -6.460938 13.25 -5.476562 13.25 -4.21875 C 13.25 -2.75 12.738281 -1.628906 11.71875 -0.859375 C 10.707031 -0.0976562 9.210938 0.28125 7.234375 0.28125 C 6.285156 0.28125 5.34375 0.195312 4.40625 0.03125 C 3.46875 -0.125 2.515625 -0.367188 1.546875 -0.703125 Z M 1.546875 -0.703125 "/>
</g>
<g id="glyph-3-17">
<path d="M 6.234375 2.34375 C 5.921875 3.101562 5.539062 3.640625 5.09375 3.953125 C 4.65625 4.273438 4.066406 4.4375 3.328125 4.4375 C 3.003906 4.4375 2.644531 4.398438 2.25 4.328125 C 1.863281 4.265625 1.441406 4.164062 0.984375 4.03125 L 0.984375 1.859375 L 2.078125 1.859375 C 2.097656 2.367188 2.21875 2.742188 2.4375 2.984375 C 2.65625 3.222656 2.984375 3.34375 3.421875 3.34375 C 3.835938 3.34375 4.175781 3.222656 4.4375 2.984375 C 4.695312 2.753906 4.957031 2.320312 5.21875 1.6875 L 5.375 1.3125 L 0.859375 -9.203125 L -0.265625 -9.203125 L -0.265625 -10.375 L 5.71875 -10.375 L 5.71875 -9.203125 L 4.484375 -9.203125 L 7.125 -3.0625 L 9.578125 -9.203125 L 8.203125 -9.203125 L 8.203125 -10.375 L 12.09375 -10.375 L 12.09375 -9.203125 L 10.84375 -9.203125 Z M 6.234375 2.34375 "/>
</g>
<g id="glyph-3-18">
<path d="M 0.9375 -0.296875 L 0.9375 -3.203125 L 2.046875 -3.203125 C 2.128906 -2.429688 2.414062 -1.84375 2.90625 -1.4375 C 3.394531 -1.03125 4.0625 -0.828125 4.90625 -0.828125 C 5.601562 -0.828125 6.140625 -0.945312 6.515625 -1.1875 C 6.890625 -1.425781 7.078125 -1.773438 7.078125 -2.234375 C 7.078125 -2.648438 6.957031 -2.972656 6.71875 -3.203125 C 6.488281 -3.429688 6.03125 -3.628906 5.34375 -3.796875 L 3.921875 -4.15625 C 2.847656 -4.425781 2.066406 -4.8125 1.578125 -5.3125 C 1.097656 -5.8125 0.859375 -6.484375 0.859375 -7.328125 C 0.859375 -8.453125 1.25 -9.289062 2.03125 -9.84375 C 2.8125 -10.394531 4.015625 -10.671875 5.640625 -10.671875 C 6.253906 -10.671875 6.90625 -10.617188 7.59375 -10.515625 C 8.289062 -10.410156 9.0625 -10.253906 9.90625 -10.046875 L 9.90625 -7.421875 L 8.796875 -7.421875 C 8.742188 -8.128906 8.492188 -8.660156 8.046875 -9.015625 C 7.597656 -9.378906 6.957031 -9.5625 6.125 -9.5625 C 5.414062 -9.5625 4.878906 -9.445312 4.515625 -9.21875 C 4.160156 -9 3.984375 -8.675781 3.984375 -8.25 C 3.984375 -7.894531 4.085938 -7.613281 4.296875 -7.40625 C 4.503906 -7.207031 4.878906 -7.039062 5.421875 -6.90625 L 6.84375 -6.546875 C 8.195312 -6.203125 9.132812 -5.773438 9.65625 -5.265625 C 10.175781 -4.753906 10.4375 -4.046875 10.4375 -3.140625 C 10.4375 -1.972656 10.019531 -1.109375 9.1875 -0.546875 C 8.351562 0.00390625 7.050781 0.28125 5.28125 0.28125 C 4.632812 0.28125 3.953125 0.226562 3.234375 0.125 C 2.515625 0.03125 1.75 -0.109375 0.9375 -0.296875 Z M 0.9375 -0.296875 "/>
</g>
<g id="glyph-4-0">
<path d="M 0.609375 0 L 0.609375 -0.765625 L 1.828125 -0.765625 L 1.828125 -8.703125 L 0.609375 -8.703125 L 0.609375 -9.484375 L 6 -9.484375 C 7.050781 -9.484375 7.890625 -9.226562 8.515625 -8.71875 C 9.140625 -8.21875 9.453125 -7.546875 9.453125 -6.703125 C 9.453125 -5.859375 9.140625 -5.179688 8.515625 -4.671875 C 7.890625 -4.171875 7.050781 -3.921875 6 -3.921875 L 4.265625 -3.921875 L 4.265625 -0.765625 L 5.796875 -0.765625 L 5.796875 0 Z M 4.265625 -4.6875 L 4.984375 -4.6875 C 5.523438 -4.6875 5.957031 -4.867188 6.28125 -5.234375 C 6.613281 -5.609375 6.78125 -6.097656 6.78125 -6.703125 C 6.78125 -7.316406 6.617188 -7.800781 6.296875 -8.15625 C 5.972656 -8.519531 5.535156 -8.703125 4.984375 -8.703125 L 4.265625 -8.703125 Z M 4.265625 -4.6875 "/>
</g>
<g id="glyph-4-1">
<path d="M 7.15625 -4.140625 L 7.15625 -0.765625 L 8.125 -0.765625 L 8.125 0 L 4.90625 0 L 4.90625 -0.859375 C 4.613281 -0.503906 4.285156 -0.238281 3.921875 -0.0625 C 3.554688 0.101562 3.140625 0.1875 2.671875 0.1875 C 1.984375 0.1875 1.453125 0.00390625 1.078125 -0.359375 C 0.710938 -0.734375 0.53125 -1.269531 0.53125 -1.96875 C 0.53125 -2.71875 0.796875 -3.28125 1.328125 -3.65625 C 1.859375 -4.039062 2.660156 -4.234375 3.734375 -4.234375 L 4.90625 -4.234375 L 4.90625 -4.625 C 4.90625 -5.175781 4.773438 -5.582031 4.515625 -5.84375 C 4.265625 -6.101562 3.867188 -6.234375 3.328125 -6.234375 C 2.878906 -6.234375 2.53125 -6.140625 2.28125 -5.953125 C 2.039062 -5.765625 1.867188 -5.460938 1.765625 -5.046875 L 1.046875 -5.046875 L 1.046875 -6.5 C 1.453125 -6.644531 1.867188 -6.753906 2.296875 -6.828125 C 2.734375 -6.898438 3.191406 -6.9375 3.671875 -6.9375 C 4.878906 -6.9375 5.757812 -6.710938 6.3125 -6.265625 C 6.875 -5.816406 7.15625 -5.109375 7.15625 -4.140625 Z M 4.90625 -2.125 L 4.90625 -3.46875 L 4.0625 -3.46875 C 3.644531 -3.46875 3.320312 -3.351562 3.09375 -3.125 C 2.875 -2.894531 2.765625 -2.566406 2.765625 -2.140625 C 2.765625 -1.710938 2.84375 -1.394531 3 -1.1875 C 3.164062 -0.976562 3.421875 -0.875 3.765625 -0.875 C 4.109375 -0.875 4.382812 -0.988281 4.59375 -1.21875 C 4.800781 -1.445312 4.90625 -1.75 4.90625 -2.125 Z M 4.90625 -2.125 "/>
</g>
<g id="glyph-4-2">
<path d="M 7.828125 -5.984375 L 7.828125 -0.09375 C 7.828125 0.851562 7.488281 1.585938 6.8125 2.109375 C 6.132812 2.628906 5.179688 2.890625 3.953125 2.890625 C 3.503906 2.890625 3.046875 2.851562 2.578125 2.78125 C 2.117188 2.707031 1.648438 2.601562 1.171875 2.46875 L 1.171875 0.859375 L 1.890625 0.859375 C 1.953125 1.304688 2.128906 1.632812 2.421875 1.84375 C 2.710938 2.0625 3.132812 2.171875 3.6875 2.171875 C 4.375 2.171875 4.859375 2.003906 5.140625 1.671875 C 5.429688 1.335938 5.578125 0.75 5.578125 -0.09375 L 5.578125 -0.859375 C 5.390625 -0.503906 5.132812 -0.238281 4.8125 -0.0625 C 4.488281 0.101562 4.085938 0.1875 3.609375 0.1875 C 2.648438 0.1875 1.894531 -0.128906 1.34375 -0.765625 C 0.800781 -1.398438 0.53125 -2.269531 0.53125 -3.375 C 0.53125 -4.488281 0.800781 -5.359375 1.34375 -5.984375 C 1.894531 -6.617188 2.648438 -6.9375 3.609375 -6.9375 C 4.085938 -6.9375 4.488281 -6.847656 4.8125 -6.671875 C 5.132812 -6.503906 5.390625 -6.242188 5.578125 -5.890625 L 5.578125 -6.75 L 8.78125 -6.75 L 8.78125 -5.984375 Z M 5.578125 -3.703125 C 5.578125 -4.492188 5.472656 -5.0625 5.265625 -5.40625 C 5.066406 -5.757812 4.742188 -5.9375 4.296875 -5.9375 C 3.835938 -5.9375 3.515625 -5.75 3.328125 -5.375 C 3.140625 -5.007812 3.046875 -4.34375 3.046875 -3.375 C 3.046875 -2.40625 3.140625 -1.734375 3.328125 -1.359375 C 3.515625 -0.992188 3.835938 -0.8125 4.296875 -0.8125 C 4.742188 -0.8125 5.066406 -0.984375 5.265625 -1.328125 C 5.472656 -1.679688 5.578125 -2.253906 5.578125 -3.046875 Z M 5.578125 -3.703125 "/>
</g>
<g id="glyph-4-3">
<path d="M 5.21875 -3.8125 C 5.21875 -4.695312 5.132812 -5.316406 4.96875 -5.671875 C 4.800781 -6.035156 4.519531 -6.21875 4.125 -6.21875 C 3.738281 -6.21875 3.460938 -6.039062 3.296875 -5.6875 C 3.128906 -5.332031 3.046875 -4.742188 3.046875 -3.921875 L 3.046875 -3.8125 Z M 7.6875 -3.046875 L 3.046875 -3.046875 L 3.046875 -3 C 3.046875 -2.125 3.175781 -1.492188 3.4375 -1.109375 C 3.695312 -0.722656 4.117188 -0.53125 4.703125 -0.53125 C 5.191406 -0.53125 5.582031 -0.660156 5.875 -0.921875 C 6.175781 -1.179688 6.375 -1.554688 6.46875 -2.046875 L 7.515625 -2.046875 C 7.335938 -1.273438 6.976562 -0.707031 6.4375 -0.34375 C 5.894531 0.0078125 5.132812 0.1875 4.15625 0.1875 C 2.988281 0.1875 2.09375 -0.117188 1.46875 -0.734375 C 0.84375 -1.347656 0.53125 -2.226562 0.53125 -3.375 C 0.53125 -4.488281 0.847656 -5.359375 1.484375 -5.984375 C 2.128906 -6.617188 3.019531 -6.9375 4.15625 -6.9375 C 5.269531 -6.9375 6.125 -6.601562 6.71875 -5.9375 C 7.320312 -5.28125 7.644531 -4.316406 7.6875 -3.046875 Z M 7.6875 -3.046875 "/>
</g>
<g id="glyph-4-4">
</g>
<g id="glyph-4-5">
<path d="M 8.296875 0 L 3.078125 0 L 3.078125 -0.765625 L 4.484375 -0.765625 L 4.484375 -2.5 L 0.53125 -2.5 L 0.53125 -3.21875 L 4.5 -9.65625 L 6.890625 -9.65625 L 6.890625 -3.3125 L 8.515625 -3.3125 L 8.515625 -2.5 L 6.890625 -2.5 L 6.890625 -0.765625 L 8.296875 -0.765625 Z M 4.484375 -3.3125 L 4.484375 -7.921875 L 1.65625 -3.3125 Z M 4.484375 -3.3125 "/>
</g>
<g id="glyph-4-6">
<path d="M 4.34375 -0.53125 C 4.8125 -0.53125 5.140625 -0.734375 5.328125 -1.140625 C 5.523438 -1.546875 5.625 -2.289062 5.625 -3.375 C 5.625 -4.457031 5.53125 -5.203125 5.34375 -5.609375 C 5.15625 -6.015625 4.820312 -6.21875 4.34375 -6.21875 C 3.863281 -6.21875 3.523438 -6.007812 3.328125 -5.59375 C 3.140625 -5.1875 3.046875 -4.445312 3.046875 -3.375 C 3.046875 -2.300781 3.140625 -1.554688 3.328125 -1.140625 C 3.523438 -0.734375 3.863281 -0.53125 4.34375 -0.53125 Z M 4.34375 0.1875 C 3.15625 0.1875 2.222656 -0.128906 1.546875 -0.765625 C 0.867188 -1.398438 0.53125 -2.269531 0.53125 -3.375 C 0.53125 -4.488281 0.867188 -5.359375 1.546875 -5.984375 C 2.222656 -6.617188 3.15625 -6.9375 4.34375 -6.9375 C 5.53125 -6.9375 6.460938 -6.617188 7.140625 -5.984375 C 7.816406 -5.359375 8.15625 -4.488281 8.15625 -3.375 C 8.15625 -2.269531 7.816406 -1.398438 7.140625 -0.765625 C 6.460938 -0.128906 5.53125 0.1875 4.34375 0.1875 Z M 4.34375 0.1875 "/>
</g>
<g id="glyph-4-7">
<path d="M 6.296875 -8.1875 L 5.578125 -8.1875 C 5.546875 -8.519531 5.445312 -8.765625 5.28125 -8.921875 C 5.125 -9.085938 4.898438 -9.171875 4.609375 -9.171875 C 4.273438 -9.171875 4.03125 -9.046875 3.875 -8.796875 C 3.726562 -8.554688 3.65625 -8.164062 3.65625 -7.625 L 3.65625 -6.75 L 5.34375 -6.75 L 5.34375 -5.984375 L 3.65625 -5.984375 L 3.65625 -0.765625 L 4.953125 -0.765625 L 4.953125 0 L 0.4375 0 L 0.4375 -0.765625 L 1.40625 -0.765625 L 1.40625 -5.984375 L 0.40625 -5.984375 L 0.40625 -6.75 L 1.40625 -6.75 L 1.40625 -7.59375 C 1.40625 -8.34375 1.644531 -8.910156 2.125 -9.296875 C 2.601562 -9.679688 3.304688 -9.875 4.234375 -9.875 C 4.585938 -9.875 4.9375 -9.851562 5.28125 -9.8125 C 5.625 -9.769531 5.960938 -9.710938 6.296875 -9.640625 Z M 6.296875 -8.1875 "/>
</g>
<g id="glyph-4-8">
<path d="M 1.78125 0 L 1.78125 -0.765625 L 3.5625 -0.765625 L 3.5625 -8.4375 L 1.59375 -7.265625 L 1.59375 -8.21875 L 3.96875 -9.65625 L 5.96875 -9.65625 L 5.96875 -0.765625 L 7.75 -0.765625 L 7.75 0 Z M 1.78125 0 "/>
</g>
<g id="glyph-4-9">
<path d="M 4.53125 -0.5625 C 5.03125 -0.5625 5.375 -0.789062 5.5625 -1.25 C 5.757812 -1.707031 5.859375 -2.867188 5.859375 -4.734375 C 5.859375 -6.578125 5.757812 -7.734375 5.5625 -8.203125 C 5.375 -8.671875 5.03125 -8.90625 4.53125 -8.90625 C 4.019531 -8.90625 3.671875 -8.671875 3.484375 -8.203125 C 3.296875 -7.742188 3.203125 -6.585938 3.203125 -4.734375 C 3.203125 -2.867188 3.296875 -1.707031 3.484375 -1.25 C 3.671875 -0.789062 4.019531 -0.5625 4.53125 -0.5625 Z M 4.53125 0.1875 C 3.257812 0.1875 2.285156 -0.234375 1.609375 -1.078125 C 0.941406 -1.921875 0.609375 -3.140625 0.609375 -4.734375 C 0.609375 -6.316406 0.941406 -7.53125 1.609375 -8.375 C 2.285156 -9.226562 3.257812 -9.65625 4.53125 -9.65625 C 5.789062 -9.65625 6.753906 -9.226562 7.421875 -8.375 C 8.097656 -7.53125 8.4375 -6.316406 8.4375 -4.734375 C 8.4375 -3.140625 8.097656 -1.921875 7.421875 -1.078125 C 6.753906 -0.234375 5.789062 0.1875 4.53125 0.1875 Z M 4.53125 0.1875 "/>
</g>
</g>
</defs>
<rect x="-180" y="-200" width="2160" height="2400" fill="rgb(100%, 100%, 100%)" fill-opacity="1"/>
<path fill="none" stroke-width="1" stroke-linecap="round" stroke-linejoin="round" stroke="rgb(0%, 0%, 0%)" stroke-opacity="1" stroke-miterlimit="10" d="M 1758 30 C 1764.628906 30 1770 35.371094 1770 42 L 1770 1958 C 1770 1964.628906 1764.628906 1970 1758 1970 L 42 1970 C 35.371094 1970 30 1964.628906 30 1958 L 30 42 C 30 35.371094 35.371094 30 42 30 Z M 1758 30 "/>
<g fill="rgb(0%, 0%, 0%)" fill-opacity="1">
<use xlink:href="#glyph-0-0" x="236.523438" y="100"/>
<use xlink:href="#glyph-0-1" x="265.097656" y="100"/>
<use xlink:href="#glyph-0-2" x="289.719727" y="100"/>
<use xlink:href="#glyph-0-3" x="307.272461" y="100"/>
<use xlink:href="#glyph-0-4" x="321.708008" y="100"/>
<use xlink:href="#glyph-0-5" x="345.884766" y="100"/>
<use xlink:href="#glyph-0-2" x="373.512695" y="100"/>
<use xlink:href="#glyph-0-6" x="391.06543" y="100"/>
<use xlink:href="#glyph-0-7" x="406.836914" y="100"/>
<use xlink:href="#glyph-0-8" x="438.416992" y="100"/>
<use xlink:href="#glyph-0-9" x="463.762695" y="100"/>
<use xlink:href="#glyph-0-8" x="490.333008" y="100"/>
<use xlink:href="#glyph-0-2" x="515.678711" y="100"/>
<use xlink:href="#glyph-0-10" x="533.231445" y="100"/>
<use xlink:href="#glyph-0-11" x="546.460938" y="100"/>
<use xlink:href="#glyph-0-5" x="564.236328" y="100"/>
<use xlink:href="#glyph-0-2" x="591.864258" y="100"/>
<use xlink:href="#glyph-0-4" x="609.416992" y="100"/>
<use xlink:href="#glyph-0-12" x="633.59375" y="100"/>
<use xlink:href="#glyph-0-1" x="653.614258" y="100"/>
<use xlink:href="#glyph-0-13" x="678.236328" y="100"/>
<use xlink:href="#glyph-0-2" x="701.374023" y="100"/>
<use xlink:href="#glyph-0-3" x="718.926758" y="100"/>
<use xlink:href="#glyph-0-8" x="733.362305" y="100"/>
<use xlink:href="#glyph-0-5" x="758.708008" y="100"/>
<use xlink:href="#glyph-0-14" x="786.335938" y="100"/>
<use xlink:href="#glyph-0-10" x="800.363281" y="100"/>
<use xlink:href="#glyph-0-7" x="813.592773" y="100"/>
<use xlink:href="#glyph-0-8" x="845.172852" y="100"/>
<use xlink:href="#glyph-0-9" x="870.518555" y="100"/>
<use xlink:href="#glyph-0-8" x="897.088867" y="100"/>
<use xlink:href="#glyph-0-2" x="922.43457" y="100"/>
<use xlink:href="#glyph-0-3" x="939.987305" y="100"/>
<use xlink:href="#glyph-0-13" x="954.422852" y="100"/>
<use xlink:href="#glyph-0-10" x="977.560547" y="100"/>
<use xlink:href="#glyph-0-15" x="990.790039" y="100"/>
<use xlink:href="#glyph-0-4" x="1025.524414" y="100"/>
<use xlink:href="#glyph-0-4" x="1049.701172" y="100"/>
<use xlink:href="#glyph-0-16" x="1073.87793" y="100"/>
<use xlink:href="#glyph-0-17" x="1100.448242" y="100"/>
<use xlink:href="#glyph-0-4" x="1114.883789" y="100"/>
<use xlink:href="#glyph-0-6" x="1139.060547" y="100"/>
<use xlink:href="#glyph-0-0" x="1154.832031" y="100"/>
<use xlink:href="#glyph-0-17" x="1183.40625" y="100"/>
<use xlink:href="#glyph-0-1" x="1197.841797" y="100"/>
<use xlink:href="#glyph-0-13" x="1222.463867" y="100"/>
<use xlink:href="#glyph-0-4" x="1245.601562" y="100"/>
<use xlink:href="#glyph-0-18" x="1269.77832" y="100"/>
<use xlink:href="#glyph-0-4" x="1309.986328" y="100"/>
<use xlink:href="#glyph-0-5" x="1334.163086" y="100"/>
<use xlink:href="#glyph-0-2" x="1361.791016" y="100"/>
<use xlink:href="#glyph-0-10" x="1379.34375" y="100"/>
<use xlink:href="#glyph-0-19" x="1392.573242" y="100"/>
<use xlink:href="#glyph-0-20" x="1420.015625" y="100"/>
<use xlink:href="#glyph-0-21" x="1442.095703" y="100"/>
<use xlink:href="#glyph-0-2" x="1463.489258" y="100"/>
<use xlink:href="#glyph-0-4" x="1481.041992" y="100"/>
<use xlink:href="#glyph-0-18" x="1505.21875" y="100"/>
<use xlink:href="#glyph-0-21" x="1545.426758" y="100"/>
</g>
<path fill="none" stroke-width="1.5" stroke-linecap="round" stroke-linejoin="round" stroke="rgb(0%, 0%, 0%)" stroke-opacity="1" stroke-miterlimit="10" d="M 60 120 L 1740 120 "/>
<g fill="rgb(0%, 0%, 0%)" fill-opacity="1">
<use xlink:href="#glyph-1-0" x="784.1875" y="148"/>
<use xlink:href="#glyph-1-1" x="795.742188" y="148"/>
<use xlink:href="#glyph-1-2" x="805.984375" y="148"/>
<use xlink:href="#glyph-1-3" x="816.289062" y="148"/>
<use xlink:href="#glyph-1-4" x="821.40625" y="148"/>
<use xlink:href="#glyph-1-5" x="827.835938" y="148"/>
<use xlink:href="#glyph-1-6" x="832.921875" y="148"/>
<use xlink:href="#glyph-1-7" x="846.039062" y="148"/>
<use xlink:href="#glyph-1-8" x="856.34375" y="148"/>
<use xlink:href="#glyph-1-9" x="865.304688" y="148"/>
<use xlink:href="#glyph-1-3" x="874.9375" y="148"/>
<use xlink:href="#glyph-1-9" x="880.054688" y="148"/>
<use xlink:href="#glyph-1-10" x="889.6875" y="148"/>
<use xlink:href="#glyph-1-11" x="899.929688" y="148"/>
<use xlink:href="#glyph-1-5" x="908.96875" y="148"/>
<use xlink:href="#glyph-1-12" x="914.054688" y="148"/>
<use xlink:href="#glyph-1-13" x="924.726562" y="148"/>
<use xlink:href="#glyph-1-14" x="932.375" y="148"/>
<use xlink:href="#glyph-1-15" x="937.492188" y="148"/>
<use xlink:href="#glyph-1-3" x="947.03125" y="148"/>
<use xlink:href="#glyph-1-5" x="952.148438" y="148"/>
<use xlink:href="#glyph-1-16" x="957.234375" y="148"/>
<use xlink:href="#glyph-1-17" x="968.195312" y="148"/>
<use xlink:href="#glyph-1-4" x="977.664062" y="148"/>
<use xlink:href="#glyph-1-4" x="984.09375" y="148"/>
<use xlink:href="#glyph-1-14" x="990.523438" y="148"/>
<use xlink:href="#glyph-1-7" x="995.640625" y="148"/>
<use xlink:href="#glyph-1-10" x="1005.945312" y="148"/>
</g>
<path fill="none" stroke-width="1" stroke-linecap="round" stroke-linejoin="round" stroke="rgb(0%, 0%, 0%)" stroke-opacity="1" stroke-dasharray="8 4" stroke-miterlimit="10" d="M 60 1680 L 1740 1680 "/>
<path fill-rule="nonzero" fill="rgb(100%, 100%, 100%)" fill-opacity="1" stroke-width="2.5" stroke-linecap="round" stroke-linejoin="round" stroke="rgb(0%, 0%, 0%)" stroke-opacity="1" stroke-miterlimit="10" d="M 1158 970 C 1162.41875 970 1166 973.58125 1166 978 L 1166 1092 C 1166 1096.41875 1162.41875 1100 1158 1100 L 1074 1100 C 1069.58125 1100 1066 1096.41875 1066 1092 L 1066 978 C 1066 973.58125 1069.58125 970 1074 970 Z M 1158 970 " transform="matrix(2.5, 0, 0, 2.5, -1674, -1275)"/>
<path fill="none" stroke-width="2.5" stroke-linecap="round" stroke-linejoin="round" stroke="rgb(0%, 0%, 0%)" stroke-opacity="1" stroke-miterlimit="10" d="M 1147 985 C 1149.209375 985 1151 986.790625 1151 989 L 1151 1026 C 1151 1028.209375 1149.209375 1030 1147 1030 L 1085 1030 C 1082.790625 1030 1081 1028.209375 1081 1026 L 1081 989 C 1081 986.790625 1082.790625 985 1085 985 Z M 1147 985 " transform="matrix(2.5, 0, 0, 2.5, -1674, -1275)"/>
<path fill="none" stroke-width="2.5" stroke-linecap="round" stroke-linejoin="round" stroke="rgb(0%, 0%, 0%)" stroke-opacity="1" stroke-miterlimit="10" d="M 1101 1007 L 1131 1007 " transform="matrix(2.5, 0, 0, 2.5, -1674, -1275)"/>
<path fill="none" stroke-width="2.5" stroke-linecap="round" stroke-linejoin="round" stroke="rgb(0%, 0%, 0%)" stroke-opacity="1" stroke-miterlimit="10" d="M 1116 992 L 1116 1022 " transform="matrix(2.5, 0, 0, 2.5, -1674, -1275)"/>
<path fill="none" stroke-width="2.5" stroke-linecap="round" stroke-linejoin="round" stroke="rgb(0%, 0%, 0%)" stroke-opacity="1" stroke-miterlimit="10" d="M 1124 1007 C 1124 1011.41875 1120.41875 1015 1116 1015 C 1111.58125 1015 1108 1011.41875 1108 1007 C 1108 1002.58125 1111.58125 999 1116 999 C 1120.41875 999 1124 1002.58125 1124 1007 " transform="matrix(2.5, 0, 0, 2.5, -1674, -1275)"/>
<path fill="none" stroke-width="3" stroke-linecap="round" stroke-linejoin="round" stroke="rgb(0%, 0%, 0%)" stroke-opacity="1" stroke-miterlimit="10" d="M 1116 970 L 1151 920 " transform="matrix(2.5, 0, 0, 2.5, -1674, -1275)"/>
<path fill="none" stroke-width="3" stroke-linecap="round" stroke-linejoin="round" stroke="rgb(0%, 0%, 0%)" stroke-opacity="1" stroke-miterlimit="10" d="M 1151 920 L 1166 870 " transform="matrix(2.5, 0, 0, 2.5, -1674, -1275)"/>
<path fill="none" stroke-width="3" stroke-linecap="round" stroke-linejoin="round" stroke="rgb(0%, 0%, 0%)" stroke-opacity="1" stroke-miterlimit="10" d="M 1166 870 L 1146 830 " transform="matrix(2.5, 0, 0, 2.5, -1674, -1275)"/>
<path fill-rule="nonzero" fill="rgb(100%, 100%, 100%)" fill-opacity="1" stroke-width="2.5" stroke-linecap="round" stroke-linejoin="round" stroke="rgb(0%, 0%, 0%)" stroke-opacity="1" stroke-miterlimit="10" d="M 1121 970 C 1121 972.760937 1118.760937 975 1116 975 C 1113.239062 975 1111 972.760937 1111 970 C 1111 967.239063 1113.239062 965 1116 965 C 1118.760937 965 1121 967.239063 1121 970 " transform="matrix(2.5, 0, 0, 2.5, -1674, -1275)"/>
<path fill-rule="nonzero" fill="rgb(100%, 100%, 100%)" fill-opacity="1" stroke-width="2.5" stroke-linecap="round" stroke-linejoin="round" stroke="rgb(0%, 0%, 0%)" stroke-opacity="1" stroke-miterlimit="10" d="M 1156 920 C 1156 922.760937 1153.760937 925 1151 925 C 1148.239062 925 1146 922.760937 1146 920 C 1146 917.239063 1148.239062 915 1151 915 C 1153.760937 915 1156 917.239063 1156 920 " transform="matrix(2.5, 0, 0, 2.5, -1674, -1275)"/>
<path fill-rule="nonzero" fill="rgb(100%, 100%, 100%)" fill-opacity="1" stroke-width="2.5" stroke-linecap="round" stroke-linejoin="round" stroke="rgb(0%, 0%, 0%)" stroke-opacity="1" stroke-miterlimit="10" d="M 1171 870 C 1171 872.760937 1168.760937 875 1166 875 C 1163.239062 875 1161 872.760937 1161 870 C 1161 867.239063 1163.239062 865 1166 865 C 1168.760937 865 1171 867.239063 1171 870 " transform="matrix(2.5, 0, 0, 2.5, -1674, -1275)"/>
<path fill-rule="nonzero" fill="rgb(100%, 100%, 100%)" fill-opacity="1" stroke-width="2.5" stroke-linecap="round" stroke-linejoin="round" stroke="rgb(0%, 0%, 0%)" stroke-opacity="1" stroke-miterlimit="10" d="M 1151 830 C 1151 832.760937 1148.760937 835 1146 835 C 1143.239062 835 1141 832.760937 1141 830 C 1141 827.239063 1143.239062 825 1146 825 C 1148.760937 825 1151 827.239063 1151 830 " transform="matrix(2.5, 0, 0, 2.5, -1674, -1275)"/>
<path fill-rule="nonzero" fill="rgb(100%, 100%, 100%)" fill-opacity="1" stroke-width="2.5" stroke-linecap="round" stroke-linejoin="round" stroke="rgb(0%, 0%, 0%)" stroke-opacity="1" stroke-miterlimit="10" d="M 1158 815 C 1159.65625 815 1161 816.34375 1161 818 L 1161 842 C 1161 843.65625 1159.65625 845 1158 845 L 1134 845 C 1132.34375 845 1131 843.65625 1131 842 L 1131 818 C 1131 816.34375 1132.34375 815 1134 815 Z M 1158 815 " transform="matrix(2.5, 0, 0, 2.5, -1674, -1275)"/>
<path fill="none" stroke-width="2" stroke-linecap="round" stroke-linejoin="round" stroke="rgb(0%, 0%, 0%)" stroke-opacity="1" stroke-miterlimit="10" d="M 1146 830 L 1116 890 " transform="matrix(2.5, 0, 0, 2.5, -1674, -1275)"/>
<path fill="none" stroke-width="2" stroke-linecap="round" stroke-linejoin="round" stroke="rgb(0%, 0%, 0%)" stroke-opacity="1" stroke-miterlimit="10" d="M 1116 890 L 1114 900 " transform="matrix(2.5, 0, 0, 2.5, -1674, -1275)"/>
<path fill="none" stroke-width="1" stroke-linecap="round" stroke-linejoin="round" stroke="rgb(0%, 0%, 0%)" stroke-opacity="1" stroke-miterlimit="10" d="M 1137 840 L 1143 844 " transform="matrix(2.5, 0, 0, 2.5, -1674, -1275)"/>
<path fill="none" stroke-width="1" stroke-linecap="round" stroke-linejoin="round" stroke="rgb(0%, 0%, 0%)" stroke-opacity="1" stroke-miterlimit="10" d="M 1131 852 L 1137 856 " transform="matrix(2.5, 0, 0, 2.5, -1674, -1275)"/>
<path fill="none" stroke-width="1" stroke-linecap="round" stroke-linejoin="round" stroke="rgb(0%, 0%, 0%)" stroke-opacity="1" stroke-miterlimit="10" d="M 1125 864 L 1131 868 " transform="matrix(2.5, 0, 0, 2.5, -1674, -1275)"/>
<path fill="none" stroke-width="1" stroke-linecap="round" stroke-linejoin="round" stroke="rgb(0%, 0%, 0%)" stroke-opacity="1" stroke-miterlimit="10" d="M 1119 876 L 1125 880 " transform="matrix(2.5, 0, 0, 2.5, -1674, -1275)"/>
<path fill-rule="nonzero" fill="rgb(100%, 100%, 100%)" fill-opacity="1" stroke-width="2.5" stroke-linecap="round" stroke-linejoin="round" stroke="rgb(0%, 0%, 0%)" stroke-opacity="1" stroke-miterlimit="10" d="M 1089 1105 C 1089 1109.41875 1085.41875 1113 1081 1113 C 1076.58125 1113 1073 1109.41875 1073 1105 C 1073 1100.58125 1076.58125 1097 1081 1097 C 1085.41875 1097 1089 1100.58125 1089 1105 " transform="matrix(2.5, 0, 0, 2.5, -1674, -1275)"/>
<path fill-rule="nonzero" fill="rgb(100%, 100%, 100%)" fill-opacity="1" stroke-width="2.5" stroke-linecap="round" stroke-linejoin="round" stroke="rgb(0%, 0%, 0%)" stroke-opacity="1" stroke-miterlimit="10" d="M 1159 1105 C 1159 1109.41875 1155.41875 1113 1151 1113 C 1146.58125 1113 1143 1109.41875 1143 1105 C 1143 1100.58125 1146.58125 1097 1151 1097 C 1155.41875 1097 1159 1100.58125 1159 1105 " transform="matrix(2.5, 0, 0, 2.5, -1674, -1275)"/>
<path fill-rule="nonzero" fill="rgb(100%, 100%, 100%)" fill-opacity="1" stroke-width="2.5" stroke-linecap="round" stroke-linejoin="round" stroke="rgb(0%, 0%, 0%)" stroke-opacity="1" stroke-miterlimit="10" d="M 578 550 C 578 570.988281 560.988281 588 540 588 C 519.011719 588 502 570.988281 502 550 C 502 529.011719 519.011719 512 540 512 C 560.988281 512 578 529.011719 578 550 "/>
<path fill-rule="nonzero" fill="rgb(0%, 0%, 0%)" fill-opacity="1" d="M 529.738281 544.300781 C 529.738281 548.351562 523.660156 548.351562 523.660156 544.300781 C 523.660156 540.246094 529.738281 540.246094 529.738281 544.300781 "/>
<path fill-rule="nonzero" fill="rgb(0%, 0%, 0%)" fill-opacity="1" d="M 556.339844 544.300781 C 556.339844 548.351562 550.261719 548.351562 550.261719 544.300781 C 550.261719 540.246094 556.339844 540.246094 556.339844 544.300781 "/>
<path fill="none" stroke-width="2" stroke-linecap="round" stroke-linejoin="round" stroke="rgb(0%, 0%, 0%)" stroke-opacity="1" stroke-miterlimit="10" d="M 540 548.101562 L 536.960938 555.699219 L 543.039062 555.699219 "/>
<path fill="none" stroke-width="2" stroke-linecap="round" stroke-linejoin="round" stroke="rgb(0%, 0%, 0%)" stroke-opacity="1" stroke-miterlimit="10" d="M 547.515625 560.636719 C 546.953125 564.351562 543.757812 567.101562 540 567.101562 C 536.242188 567.101562 533.046875 564.351562 532.484375 560.636719 "/>
<path fill-rule="nonzero" fill="rgb(0%, 0%, 0%)" fill-opacity="1" d="M 508.648438 538.042969 C 508.648438 540.042969 505.648438 540.042969 505.648438 538.042969 C 505.648438 536.042969 508.648438 536.042969 508.648438 538.042969 "/>
<path fill-rule="nonzero" fill="rgb(0%, 0%, 0%)" fill-opacity="1" d="M 512.863281 529.949219 C 512.863281 531.949219 509.863281 531.949219 509.863281 529.949219 C 509.863281 527.949219 512.863281 527.949219 512.863281 529.949219 "/>
<path fill-rule="nonzero" fill="rgb(0%, 0%, 0%)" fill-opacity="1" d="M 519.027344 523.21875 C 519.027344 525.21875 516.027344 525.21875 516.027344 523.21875 C 516.027344 521.21875 519.027344 521.21875 519.027344 523.21875 "/>
<path fill-rule="nonzero" fill="rgb(0%, 0%, 0%)" fill-opacity="1" d="M 526.726562 518.316406 C 526.726562 520.316406 523.726562 520.316406 523.726562 518.316406 C 523.726562 516.316406 526.726562 516.316406 526.726562 518.316406 "/>
<path fill-rule="nonzero" fill="rgb(0%, 0%, 0%)" fill-opacity="1" d="M 535.429688 515.570312 C 535.429688 517.570312 532.429688 517.570312 532.429688 515.570312 C 532.429688 513.570312 535.429688 513.570312 535.429688 515.570312 "/>
<path fill-rule="nonzero" fill="rgb(0%, 0%, 0%)" fill-opacity="1" d="M 544.546875 515.171875 C 544.546875 517.171875 541.546875 517.171875 541.546875 515.171875 C 541.546875 513.171875 544.546875 513.171875 544.546875 515.171875 "/>
<path fill-rule="nonzero" fill="rgb(0%, 0%, 0%)" fill-opacity="1" d="M 553.457031 517.148438 C 553.457031 519.148438 550.457031 519.148438 550.457031 517.148438 C 550.457031 515.148438 553.457031 515.148438 553.457031 517.148438 "/>
<path fill-rule="nonzero" fill="rgb(0%, 0%, 0%)" fill-opacity="1" d="M 561.550781 521.363281 C 561.550781 523.363281 558.550781 523.363281 558.550781 521.363281 C 558.550781 519.363281 561.550781 519.363281 561.550781 521.363281 "/>
<path fill-rule="nonzero" fill="rgb(0%, 0%, 0%)" fill-opacity="1" d="M 568.28125 527.527344 C 568.28125 529.527344 565.28125 529.527344 565.28125 527.527344 C 565.28125 525.527344 568.28125 525.527344 568.28125 527.527344 "/>
<path fill-rule="nonzero" fill="rgb(0%, 0%, 0%)" fill-opacity="1" d="M 573.183594 535.226562 C 573.183594 537.226562 570.183594 537.226562 570.183594 535.226562 C 570.183594 533.226562 573.183594 533.226562 573.183594 535.226562 "/>
<path fill-rule="nonzero" fill="rgb(100%, 100%, 100%)" fill-opacity="1" stroke-width="2.5" stroke-linecap="round" stroke-linejoin="round" stroke="rgb(0%, 0%, 0%)" stroke-opacity="1" stroke-miterlimit="10" d="M 485 593 L 470 723 L 610 723 L 595 593 Z M 485 593 "/>
<path fill="none" stroke-width="2.5" stroke-linecap="round" stroke-linejoin="round" stroke="rgb(0%, 0%, 0%)" stroke-opacity="1" stroke-miterlimit="10" d="M 520 593 L 540 628 L 560 593 "/>
<path fill="none" stroke-width="2.5" stroke-linecap="round" stroke-linejoin="round" stroke="rgb(0%, 0%, 0%)" stroke-opacity="1" stroke-miterlimit="10" d="M 535 628 L 515 648 "/>
<path fill="none" stroke-width="2.5" stroke-linecap="round" stroke-linejoin="round" stroke="rgb(0%, 0%, 0%)" stroke-opacity="1" stroke-miterlimit="10" d="M 545 628 L 565 648 "/>
<path fill="none" stroke-width="2.5" stroke-linecap="round" stroke-linejoin="round" stroke="rgb(0%, 0%, 0%)" stroke-opacity="1" stroke-miterlimit="10" d="M 575 608 C 830.5 593 1076 628 1086 648 "/>
<path fill-rule="nonzero" fill="rgb(100%, 100%, 100%)" fill-opacity="1" stroke-width="2.5" stroke-linecap="round" stroke-linejoin="round" stroke="rgb(0%, 0%, 0%)" stroke-opacity="1" stroke-miterlimit="10" d="M 1094 648 C 1094 652.417969 1090.417969 656 1086 656 C 1081.582031 656 1078 652.417969 1078 648 C 1078 643.582031 1081.582031 640 1086 640 C 1090.417969 640 1094 643.582031 1094 648 "/>
<path fill="none" stroke-width="2.5" stroke-linecap="round" stroke-linejoin="round" stroke="rgb(0%, 0%, 0%)" stroke-opacity="1" stroke-miterlimit="10" d="M 505 608 L 495 688 "/>
<path fill-rule="nonzero" fill="rgb(100%, 100%, 100%)" fill-opacity="1" stroke-width="2.5" stroke-linecap="round" stroke-linejoin="round" stroke="rgb(0%, 0%, 0%)" stroke-opacity="1" stroke-miterlimit="10" d="M 502 688 C 502 691.867188 498.867188 695 495 695 C 491.132812 695 488 691.867188 488 688 C 488 684.132812 491.132812 681 495 681 C 498.867188 681 502 684.132812 502 688 "/>
<path fill-rule="nonzero" fill="rgb(100%, 100%, 100%)" fill-opacity="1" stroke-width="2.5" stroke-linecap="round" stroke-linejoin="round" stroke="rgb(0%, 0%, 0%)" stroke-opacity="1" stroke-miterlimit="10" d="M 1660 1701.8125 L 1642.5 1732.125 L 1677.5 1732.125 Z M 1660 1701.8125 "/>
<path fill="none" stroke-width="2.5" stroke-linecap="round" stroke-linejoin="round" stroke="rgb(0%, 0%, 0%)" stroke-opacity="1" stroke-miterlimit="10" d="M 1660 1713.9375 L 1660 1723.03125 "/>
<path fill-rule="nonzero" fill="rgb(0%, 0%, 0%)" fill-opacity="1" d="M 1662 1726.667969 C 1662 1729.335938 1658 1729.335938 1658 1726.667969 C 1658 1724 1662 1724 1662 1726.667969 "/>
<g fill="rgb(0%, 0%, 0%)" fill-opacity="1">
<use xlink:href="#glyph-2-0" x="1620" y="1750"/>
<use xlink:href="#glyph-2-1" x="1623.950195" y="1750"/>
<use xlink:href="#glyph-2-2" x="1630.800781" y="1750"/>
<use xlink:href="#glyph-2-3" x="1638.999023" y="1750"/>
<use xlink:href="#glyph-2-4" x="1642.177734" y="1750"/>
<use xlink:href="#glyph-2-5" x="1648.540039" y="1750"/>
<use xlink:href="#glyph-2-6" x="1654.902344" y="1750"/>
<use xlink:href="#glyph-2-5" x="1661.264648" y="1750"/>
</g>
<g fill="rgb(0%, 0%, 0%)" fill-opacity="1">
<use xlink:href="#glyph-3-0" x="702.660156" y="1720"/>
<use xlink:href="#glyph-3-1" x="719.28125" y="1720"/>
<use xlink:href="#glyph-3-2" x="732.621094" y="1720"/>
<use xlink:href="#glyph-3-1" x="746.605469" y="1720"/>
<use xlink:href="#glyph-3-3" x="759.945312" y="1720"/>
<use xlink:href="#glyph-3-4" x="769.183594" y="1720"/>
<use xlink:href="#glyph-3-5" x="776.78125" y="1720"/>
<use xlink:href="#glyph-3-6" x="788.958984" y="1720"/>
<use xlink:href="#glyph-3-7" x="795.921875" y="1720"/>
<use xlink:href="#glyph-3-8" x="814.203125" y="1720"/>
<use xlink:href="#glyph-3-8" x="826.927734" y="1720"/>
<use xlink:href="#glyph-3-9" x="839.652344" y="1720"/>
<use xlink:href="#glyph-3-10" x="853.636719" y="1720"/>
<use xlink:href="#glyph-3-8" x="861.234375" y="1720"/>
<use xlink:href="#glyph-3-11" x="873.958984" y="1720"/>
<use xlink:href="#glyph-3-12" x="882.259766" y="1720"/>
<use xlink:href="#glyph-3-10" x="897.298828" y="1720"/>
<use xlink:href="#glyph-3-13" x="904.896484" y="1720"/>
<use xlink:href="#glyph-3-5" x="917.855469" y="1720"/>
<use xlink:href="#glyph-3-8" x="930.033203" y="1720"/>
<use xlink:href="#glyph-3-14" x="942.757812" y="1720"/>
<use xlink:href="#glyph-3-8" x="963.919922" y="1720"/>
<use xlink:href="#glyph-3-15" x="976.644531" y="1720"/>
<use xlink:href="#glyph-3-3" x="991.185547" y="1720"/>
<use xlink:href="#glyph-3-6" x="1000.423828" y="1720"/>
<use xlink:href="#glyph-3-16" x="1007.386719" y="1720"/>
<use xlink:href="#glyph-3-17" x="1021.830078" y="1720"/>
<use xlink:href="#glyph-3-18" x="1033.451172" y="1720"/>
<use xlink:href="#glyph-3-3" x="1044.710938" y="1720"/>
<use xlink:href="#glyph-3-8" x="1053.949219" y="1720"/>
<use xlink:href="#glyph-3-14" x="1066.673828" y="1720"/>
<use xlink:href="#glyph-3-18" x="1087.835938" y="1720"/>
</g>
<path fill="none" stroke-width="1" stroke-linecap="round" stroke-linejoin="round" stroke="rgb(0%, 0%, 0%)" stroke-opacity="1" stroke-miterlimit="10" d="M 60 1740 L 1740 1740 "/>
<g fill="rgb(0%, 0%, 0%)" fill-opacity="1">
<use xlink:href="#glyph-4-0" x="855.339844" y="1770"/>
<use xlink:href="#glyph-4-1" x="865.115234" y="1770"/>
<use xlink:href="#glyph-4-2" x="873.538574" y="1770"/>
<use xlink:href="#glyph-4-3" x="882.628418" y="1770"/>
<use xlink:href="#glyph-4-4" x="890.899414" y="1770"/>
<use xlink:href="#glyph-4-5" x="895.425293" y="1770"/>
<use xlink:href="#glyph-4-4" x="904.470703" y="1770"/>
<use xlink:href="#glyph-4-6" x="908.996582" y="1770"/>
<use xlink:href="#glyph-4-7" x="917.66748" y="1770"/>
<use xlink:href="#glyph-4-4" x="923.259766" y="1770"/>
<use xlink:href="#glyph-4-8" x="927.785645" y="1770"/>
<use xlink:href="#glyph-4-9" x="936.831055" y="1770"/>
</g>
</svg>
